<svg xmlns="http://www.w3.org/2000/svg" xmlns:xlink="http://www.w3.org/1999/xlink" xmlns:lucid="lucid" width="5555.72" height="2298.04"><g transform="translate(1583.5241951733738 -214.37611541605958)" lucid:page-tab-id="0_0"><path d="M1058.9 240.38a6 6 0 0 1 6-6H1463a6 6 0 0 1 6 6v178.7a6 6 0 0 1-6 6H1064.9a6 6 0 0 1-6-6z" stroke="#5e5e5e" stroke-width="3" fill="#ff9090"/><use xlink:href="#a" transform="matrix(1,0,0,1,1070.9114647500273,246.37611541605958) translate(143.46296296296296 87.51388888888889)"/><path d="M373.77 591.1a6 6 0 0 1 6-6h398.07a6 6 0 0 1 6 6v178.7a6 6 0 0 1-6 6H379.77a6 6 0 0 1-6-6z" stroke="#5e5e5e" stroke-width="3" fill="#a7a6ff"/><use xlink:href="#b" transform="matrix(1,0,0,1,385.7741951733733,597.089911169712) translate(64.17283950617283 87.51388888888889)"/><path d="M862.6 591.1a6 6 0 0 1 6-6h398.06a6 6 0 0 1 6 6v178.7a6 6 0 0 1-6 6H868.6a6 6 0 0 1-6-6z" stroke="#5e5e5e" stroke-width="3" fill="#a7a6ff"/><use xlink:href="#c" transform="matrix(1,0,0,1,874.5928299617003,597.089911169712) translate(126.17901234567901 87.51388888888889)"/><path d="M1338.9 591.1a6 6 0 0 1 6-6H1743a6 6 0 0 1 6 6v178.7a6 6 0 0 1-6 6H1344.9a6 6 0 0 1-6-6z" stroke="#5e5e5e" stroke-width="3" fill="#a7a6ff"/><use xlink:href="#d" transform="matrix(1,0,0,1,1350.9114647500273,597.089911169712) translate(38.37654320987656 87.51388888888889)"/><path d="M1808.98 598.5a6 6 0 0 1 6-6h398.07a6 6 0 0 1 6 6v178.7a6 6 0 0 1-6 6h-398.07a6 6 0 0 1-6-6z" stroke="#5e5e5e" stroke-width="3" fill="#a7a6ff"/><use xlink:href="#e" transform="matrix(1,0,0,1,1820.9800995383541,604.4953324677939) translate(139.96296296296296 87.51388888888889)"/><path d="M1264.95 507.94H2008a6 6 0 0 1 6 6v76.1M1264.97 507.94h-1.02" stroke="#5e5e5e" stroke-width="2" fill="none"/><path d="M2015 591.03h-2V590h2z" stroke="#5e5e5e" stroke-width=".05" fill="#5e5e5e"/><path d="M1262.95 507.94H584.8a6 6 0 0 0-6 6v68.7M1262.92 507.94h1.03" stroke="#5e5e5e" stroke-width="2" fill="none"/><path d="M579.8 583.63h-2v-1.03h2z" stroke="#5e5e5e" stroke-width=".05" fill="#5e5e5e"/><path d="M-1086.48 1153.05a6 6 0 0 1 6-6h398.07a6 6 0 0 1 6 6v178.72a6 6 0 0 1-6 6h-398.08a6 6 0 0 1-6-6z" stroke="#5e5e5e" stroke-width="3" fill="#b5d6ff"/><use xlink:href="#f" transform="matrix(1,0,0,1,-1074.4828413029184,1159.0537069233642) translate(122.76543209876543 87.51388888888889)"/><path d="M1263.95 427.55v79.4" stroke="#5e5e5e" stroke-width="2" fill="none"/><path d="M1264.95 427.58h-2v-1.03h2z" stroke="#5e5e5e" stroke-width=".05" fill="#5e5e5e"/><path d="M1263.95 506.9v1.04M1579.68 508.94v73.68M1579.68 508.96v-1.02" stroke="#5e5e5e" stroke-width="2" fill="none"/><path d="M1580.68 583.62h-2v-1.03h2z" stroke="#5e5e5e" stroke-width=".05" fill="#5e5e5e"/><path d="M873.7 1210.97a6 6 0 0 1 6-6h398.08a6 6 0 0 1 6 6v178.72a6 6 0 0 1-6 6H879.7a6 6 0 0 1-6-6z" stroke="#5e5e5e" stroke-width="3" fill="#b5d6ff"/><use xlink:href="#f" transform="matrix(1,0,0,1,885.7090066928815,1216.973517288313) translate(122.76543209876543 87.51388888888889)"/><path d="M1363.77 1210.97a6 6 0 0 1 6-6h398.07a6 6 0 0 1 6 6v178.72a6 6 0 0 1-6 6h-398.07a6 6 0 0 1-6-6z" stroke="#5e5e5e" stroke-width="3" fill="#b5d6ff"/><use xlink:href="#f" transform="matrix(1,0,0,1,1375.7742475610344,1216.973517288313) translate(122.76543209876543 87.51388888888889)"/><path d="M2279.05 1210.97a6 6 0 0 1 6-6h398.07a6 6 0 0 1 6 6v178.72a6 6 0 0 1-6 6h-398.07a6 6 0 0 1-6-6z" stroke="#5e5e5e" stroke-width="3" fill="#b5d6ff"/><use xlink:href="#f" transform="matrix(1,0,0,1,2291.0487343266814,1216.973517288313) translate(122.76543209876543 87.51388888888889)"/><path d="M3260.7 1204.3a6 6 0 0 1 6-6h398.08a6 6 0 0 1 6 6V1383a6 6 0 0 1-6 6H3266.7a6 6 0 0 1-6-6z" stroke="#5e5e5e" stroke-width="3" fill="#b5d6ff"/><use xlink:href="#f" transform="matrix(1,0,0,1,3272.7090066928813,1210.2994181912281) translate(122.76543209876543 87.51388888888889)"/><path d="M3327.1 1704.16a6 6 0 0 1 6-6h255.16a6 6 0 0 1 6 6v114.7a6 6 0 0 1-6 6H3333.1a6 6 0 0 1-6-6z" stroke="#5e5e5e" stroke-width="3" fill="#dbd3b6"/><use xlink:href="#g" transform="matrix(1,0,0,1,3333.4436622939475,1704.4947423611752) translate(13.222222222222214 64.34375)"/><path d="M3327.1 1925a6 6 0 0 1 6-6h255.16a6 6 0 0 1 6 6v114.7a6 6 0 0 1-6 6H3333.1a6 6 0 0 1-6-6z" stroke="#5e5e5e" stroke-width="3" fill="#dbd3b6"/><use xlink:href="#h" transform="matrix(1,0,0,1,3333.4436622939475,1925.3357774732842) translate(52.05555555555556 64.34375)"/><path d="M2960.37 2371.72a6 6 0 0 1 6-6h255.15a6 6 0 0 1 6 6v114.7a6 6 0 0 1-6 6h-255.15a6 6 0 0 1-6-6z" stroke="#5e5e5e" stroke-width="3" fill="#dbd3b6"/><use xlink:href="#i" transform="matrix(1,0,0,1,2966.700063737269,2372.0551157393506) translate(11.055555555555543 64.34375)"/><path d="M3685.04 2132.9a6 6 0 0 1 6-6h255.15a6 6 0 0 1 6 6v114.7a6 6 0 0 1-6 6h-255.16a6 6 0 0 1-6-6z" stroke="#5e5e5e" stroke-width="3" fill="#dbd3b6"/><use xlink:href="#j" transform="matrix(1,0,0,1,3691.370474816081,2133.2413114153783) translate(-3.444444444444457 65.5)"/><path d="M2630.37 2371.72a6 6 0 0 1 6-6h255.15a6 6 0 0 1 6 6v114.7a6 6 0 0 1-6 6h-255.15a6 6 0 0 1-6-6z" stroke="#5e5e5e" stroke-width="3" fill="#dbd3b6"/><use xlink:href="#k" transform="matrix(1,0,0,1,2636.700063737269,2372.0551157393506) translate(-11.166666666666686 65.5)"/><path d="M3297.46 2371.72a6 6 0 0 1 6-6h255.15a6 6 0 0 1 6 6v114.7a6 6 0 0 1-6 6h-255.14a6 6 0 0 1-6-6z" stroke="#5e5e5e" stroke-width="3" fill="#dbd3b6"/><use xlink:href="#l" transform="matrix(1,0,0,1,3303.790396276676,2372.0551157393506) translate(-2.222222222222257 65.5)"/><path d="M3327.1 2132.9a6 6 0 0 1 6-6h255.16a6 6 0 0 1 6 6v114.7a6 6 0 0 1-6 6H3333.1a6 6 0 0 1-6-6z" stroke="#5e5e5e" stroke-width="3" fill="#dbd3b6"/><use xlink:href="#m" transform="matrix(1,0,0,1,3333.4436622939475,2133.2413114153783) translate(18.77777777777777 64.34375)"/><path d="M2969.18 2132.9a6 6 0 0 1 6-6h255.16a6 6 0 0 1 6 6v114.7a6 6 0 0 1-6 6h-255.16a6 6 0 0 1-6-6z" stroke="#5e5e5e" stroke-width="3" fill="#dbd3b6"/><use xlink:href="#n" transform="matrix(1,0,0,1,2975.516849771814,2133.2413114153783) translate(44.33333333333333 64.34375)"/><path d="M1016.62 1704.16a6 6 0 0 1 6-6h255.16a6 6 0 0 1 6 6v114.7a6 6 0 0 1-6 6h-255.16a6 6 0 0 1-6-6z" stroke="#5e5e5e" stroke-width="3" fill="#f7c5da"/><use xlink:href="#o" transform="matrix(1,0,0,1,1022.9566123448612,1704.4947423611752) translate(34.27777777777777 64.34375)"/><path d="M1643.1 1704.16a6 6 0 0 1 6-6h255.16a6 6 0 0 1 6 6v114.7a6 6 0 0 1-6 6H1649.1a6 6 0 0 1-6-6z" stroke="#5e5e5e" stroke-width="3" fill="#f7c5da"/><use xlink:href="#p" transform="matrix(1,0,0,1,1649.4436622939472,1704.4947423611752) translate(-1.2222222222222285 65.5)"/><path d="M1338.9 1704.16a6 6 0 0 1 6-6h255.17a6 6 0 0 1 6 6v114.7a6 6 0 0 1-6 6H1344.9a6 6 0 0 1-6-6z" stroke="#5e5e5e" stroke-width="3" fill="#f7c5da"/><use xlink:href="#q" transform="matrix(1,0,0,1,1345.2463269103293,1704.4947423611752) translate(32.27777777777777 64.34375)"/><path d="M1957.74 1704.16a6 6 0 0 1 6-6h255.16a6 6 0 0 1 6 6v114.7a6 6 0 0 1-6 6h-255.16a6 6 0 0 1-6-6z" stroke="#5e5e5e" stroke-width="3" fill="#f7c5da"/><use xlink:href="#r" transform="matrix(1,0,0,1,1964.0751373194041,1704.4947423611752) translate(11.111111111111086 64.34375)"/><path d="M-121.76 585.64a6 6 0 0 1 6-6H282.3a6 6 0 0 1 6 6v178.72a6 6 0 0 1-6 6h-398.06a6 6 0 0 1-6-6z" stroke="#5e5e5e" stroke-width="3" fill="#a7a6ff"/><use xlink:href="#s" transform="matrix(1,0,0,1,-109.76012222078998,591.6431021231735) translate(145.49382716049382 87.51388888888889)"/><path d="M-609.44 591.1a6 6 0 0 1 6-6h398.07a6 6 0 0 1 6 6v178.7a6 6 0 0 1-6 6h-398.07a6 6 0 0 1-6-6z" stroke="#5e5e5e" stroke-width="3" fill="#a7a6ff"/><use xlink:href="#t" transform="matrix(1,0,0,1,-597.441487432463,597.089911169712) translate(120.99382716049382 87.51388888888889)"/><path d="M2749.12 598.5a6 6 0 0 1 6-6h398.07a6 6 0 0 1 6 6v178.7a6 6 0 0 1-6 6H2755.1a6 6 0 0 1-6-6z" stroke="#5e5e5e" stroke-width="3" fill="#a7a6ff"/><use xlink:href="#u" transform="matrix(1,0,0,1,2761.1173691150084,604.495332467794) translate(113.30246913580245 87.51388888888889)"/><path d="M2279.05 598.5a6 6 0 0 1 6-6h398.07a6 6 0 0 1 6 6v178.7a6 6 0 0 1-6 6h-398.07a6 6 0 0 1-6-6z" stroke="#5e5e5e" stroke-width="3" fill="#a7a6ff"/><use xlink:href="#v" transform="matrix(1,0,0,1,2291.0487343266814,604.495332467794) translate(62.358024691358025 87.51388888888889)"/><path d="M-1086.48 591.1a6 6 0 0 1 6-6h398.07a6 6 0 0 1 6 6v178.7a6 6 0 0 1-6 6h-398.08a6 6 0 0 1-6-6z" stroke="#5e5e5e" stroke-width="3" fill="#a7a6ff"/><use xlink:href="#w" transform="matrix(1,0,0,1,-1074.4828413029184,597.089911169712) translate(43.3456790123457 87.51388888888889)"/><path d="M-1563.52 585.64a6 6 0 0 1 6-6h398.06a6 6 0 0 1 6 6v178.72a6 6 0 0 1-6 6h-398.06a6 6 0 0 1-6-6z" stroke="#5e5e5e" stroke-width="3" fill="#a7a6ff"/><use xlink:href="#x" transform="matrix(1,0,0,1,-1551.5241951733738,591.6431021231738) translate(115.93827160493827 87.51388888888889)"/><path d="M3246.1 591.1a6 6 0 0 1 6-6h398.05a6 6 0 0 1 6 6v178.7a6 6 0 0 1-6 6H3252.1a6 6 0 0 1-6-6z" stroke="#5e5e5e" stroke-width="3" fill="#a7a6ff"/><use xlink:href="#y" transform="matrix(1,0,0,1,3258.085793485409,597.089911169712) translate(74.49999999999999 87.51388888888889)"/><path d="M2009 508h503a6 6 0 0 1 6 6v76.03M2009.03 508H2008" stroke="#5e5e5e" stroke-width="2" fill="none"/><path d="M2519 591.03h-2V590h2z" stroke="#5e5e5e" stroke-width=".05" fill="#5e5e5e"/><path d="M2515 510h433.15a6 6 0 0 1 6 6v74.03M2515.03 510H2514" stroke="#5e5e5e" stroke-width="2" fill="none"/><path d="M2955.15 591.03h-2V590h2z" stroke="#5e5e5e" stroke-width=".05" fill="#5e5e5e"/><path d="M2955 510h490.12a6 6 0 0 1 6 6v66.63M2955.03 510H2954" stroke="#5e5e5e" stroke-width="2" fill="none"/><path d="M3452.12 583.63h-2v-1.03h2z" stroke="#5e5e5e" stroke-width=".05" fill="#5e5e5e"/><path d="M577.8 508H70a6 6 0 0 0-6 6v63.18M577.78 508h1.03" stroke="#5e5e5e" stroke-width="2" fill="none"/><path d="M65 578.18h-2v-1.02h2z" stroke="#5e5e5e" stroke-width=".05" fill="#5e5e5e"/><path d="M65 510h-1417.5a6 6 0 0 0-6 6v61.18M64.97 510H66" stroke="#5e5e5e" stroke-width="2" fill="none"/><path d="M-1357.5 578.18h-2v-1.03h2z" stroke="#5e5e5e" stroke-width=".05" fill="#5e5e5e"/><path d="M-860 511v71.62M-860 511.03V510" stroke="#5e5e5e" stroke-width="2" fill="none"/><path d="M-859 583.62h-2v-1.02h2z" stroke="#5e5e5e" stroke-width=".05" fill="#5e5e5e"/><path d="M-384 511v71.62M-384 511.03V510" stroke="#5e5e5e" stroke-width="2" fill="none"/><path d="M-383 583.62h-2v-1.02h2z" stroke="#5e5e5e" stroke-width=".05" fill="#5e5e5e"/><path d="M1052 509v73.63M1052 509.03V508" stroke="#5e5e5e" stroke-width="2" fill="none"/><path d="M1053 583.63h-2v-1.03h2z" stroke="#5e5e5e" stroke-width=".05" fill="#5e5e5e"/><path d="M3451.12 778.27v417.57" stroke="#5e5e5e" stroke-width="2" fill="none"/><path d="M3452.12 778.3h-2v-1.03h2zM3452.12 1196.84h-2v-1.03h2z" stroke="#5e5e5e" stroke-width=".05" fill="#5e5e5e"/><path d="M2509 784v418.5M2509 784.03V783" stroke="#5e5e5e" stroke-width="2" fill="none"/><path d="M2510 1203.5h-2v-1.02h2z" stroke="#5e5e5e" stroke-width=".05" fill="#5e5e5e"/><path d="M1543.95 778.27v424.25" stroke="#5e5e5e" stroke-width="2" fill="none"/><path d="M1544.95 778.3h-2v-1.03h2zM1544.95 1203.5l-2 .02v-1.03h2z" stroke="#5e5e5e" stroke-width=".05" fill="#5e5e5e"/><path d="M1067.63 778.27v424.24" stroke="#5e5e5e" stroke-width="2" fill="none"/><path d="M1068.63 778.3h-2v-1.03h2zM1068.63 1203.5h-2v-1h2z" stroke="#5e5e5e" stroke-width=".05" fill="#5e5e5e"/><path d="M-881.45 778.27v366.32" stroke="#5e5e5e" stroke-width="2" fill="none"/><path d="M-880.45 778.3h-2v-1.03h2zM-880.45 1145.6h-2v-1.04h2z" stroke="#5e5e5e" stroke-width=".05" fill="#5e5e5e"/><path d="M1150.2 1695.7V1569a6 6 0 0 1 6-6h929.12a6 6 0 0 1 6 6v126.7" stroke="#5e5e5e" stroke-width="2" fill="none"/><path d="M1151.2 1696.7h-2v-1.03h2zM2092.32 1696.7h-2v-1.03h2z" stroke="#5e5e5e" stroke-width=".05" fill="#5e5e5e"/><path d="M1459 1564v131.7M1459 1564.03V1563" stroke="#5e5e5e" stroke-width="2" fill="none"/><path d="M1460 1696.7h-2v-1.03h2z" stroke="#5e5e5e" stroke-width=".05" fill="#5e5e5e"/><path d="M1750 1564v131.7M1750 1564.03V1563" stroke="#5e5e5e" stroke-width="2" fill="none"/><path d="M1751 1696.7h-2v-1.02h2z" stroke="#5e5e5e" stroke-width=".05" fill="#5e5e5e"/><path d="M1576 1559v-160.85M1576 1558.97v1.03" stroke="#5e5e5e" stroke-width="2" fill="none"/><path d="M1577 1398.17h-2v-1.02h2z" stroke="#5e5e5e" stroke-width=".05" fill="#5e5e5e"/><path d="M3460 1387v308.7M3460 1387.03V1386" stroke="#5e5e5e" stroke-width="2" fill="none"/><path d="M3461 1696.7h-2v-1.03h2z" stroke="#5e5e5e" stroke-width=".05" fill="#5e5e5e"/><path d="M3457 1831v85.54M3457 1831.03V1830" stroke="#5e5e5e" stroke-width="2" fill="none"/><path d="M3458 1917.54h-2v-1.03h2z" stroke="#5e5e5e" stroke-width=".05" fill="#5e5e5e"/><path d="M3095 2130h33a6 6 0 0 0 6-6v-32.56a6 6 0 0 1 6-6h692a6 6 0 0 1 6 6v33M3095.03 2130H3094" stroke="#5e5e5e" stroke-width="2" fill="none"/><path d="M3839 2125.44h-2v-1.03h2z" stroke="#5e5e5e" stroke-width=".05" fill="#5e5e5e"/><path d="M3463 2044v80.44M3463 2044.03V2043" stroke="#5e5e5e" stroke-width="2" fill="none"/><path d="M3464 2125.44h-2v-1.02h2z" stroke="#5e5e5e" stroke-width=".05" fill="#5e5e5e"/><path d="M2763.94 2363.26v-33a6 6 0 0 1 6-6H3451a6 6 0 0 1 6 6v33" stroke="#5e5e5e" stroke-width="2" fill="none"/><path d="M2764.94 2364.26h-2v-1.03h2zM3458 2364.25h-2v-1.03h2z" stroke="#5e5e5e" stroke-width=".05" fill="#5e5e5e"/><path d="M3103 2254v109.25M3103 2254.03V2253" stroke="#5e5e5e" stroke-width="2" fill="none"/><path d="M3104 2364.25h-2v-1.02h2z" stroke="#5e5e5e" stroke-width=".05" fill="#5e5e5e"/><defs><path fill="#333" d="M205 0l-28-72H64L36 0H1l101-248h38L239 0h-34zm-38-99l-47-123c-12 45-31 82-46 123h93" id="z"/><path fill="#333" d="M96-169c-40 0-48 33-48 73s9 75 48 75c24 0 41-14 43-38l32 2c-6 37-31 61-74 61-59 0-76-41-82-99-10-93 101-131 147-64 4 7 5 14 7 22l-32 3c-4-21-16-35-41-35" id="A"/><path fill="#333" d="M84 4C-5 8 30-112 23-190h32v120c0 31 7 50 39 49 72-2 45-101 50-169h31l1 190h-30c-1-10 1-25-2-33-11 22-28 36-60 37" id="B"/><path fill="#333" d="M100-194c63 0 86 42 84 106H49c0 40 14 67 53 68 26 1 43-12 49-29l28 8c-11 28-37 45-77 45C44 4 14-33 15-96c1-61 26-98 85-98zm52 81c6-60-76-77-97-28-3 7-6 17-6 28h103" id="C"/><path fill="#333" d="M24-231v-30h32v30H24zM24 0v-190h32V0H24" id="D"/><path fill="#333" d="M24 0v-261h32V0H24" id="E"/><g id="a"><use transform="matrix(0.08641975308641976,0,0,0.08641975308641976,0,0)" xlink:href="#z"/><use transform="matrix(0.08641975308641976,0,0,0.08641975308641976,20.740740740740744,0)" xlink:href="#A"/><use transform="matrix(0.08641975308641976,0,0,0.08641975308641976,36.296296296296305,0)" xlink:href="#A"/><use transform="matrix(0.08641975308641976,0,0,0.08641975308641976,51.851851851851855,0)" xlink:href="#B"/><use transform="matrix(0.08641975308641976,0,0,0.08641975308641976,69.13580246913581,0)" xlink:href="#C"/><use transform="matrix(0.08641975308641976,0,0,0.08641975308641976,86.41975308641976,0)" xlink:href="#D"/><use transform="matrix(0.08641975308641976,0,0,0.08641975308641976,93.24691358024693,0)" xlink:href="#E"/></g><path fill="#333" d="M59-47c-2 24 18 29 38 22v24C64 9 27 4 27-40v-127H5v-23h24l9-43h21v43h35v23H59v120" id="F"/><path fill="#333" d="M115-194c55 1 70 41 70 98S169 2 115 4C84 4 66-9 55-30l1 105H24l-1-265h31l2 30c10-21 28-34 59-34zm-8 174c40 0 45-34 45-75s-6-73-45-74c-42 0-51 32-51 76 0 43 10 73 51 73" id="G"/><path fill="#333" d="M16-82v-28h88v28H16" id="H"/><path fill="#333" d="M85-194c31 0 48 13 60 33l-1-100h32l1 261h-30c-2-10 0-23-3-31C134-8 116 4 85 4 32 4 16-35 15-94c0-66 23-100 70-100zm9 24c-40 0-46 34-46 75 0 40 6 74 45 74 42 0 51-32 51-76 0-42-9-74-50-73" id="I"/><path fill="#333" d="M141-36C126-15 110 5 73 4 37 3 15-17 15-53c-1-64 63-63 125-63 3-35-9-54-41-54-24 1-41 7-42 31l-33-3c5-37 33-52 76-52 45 0 72 20 72 64v82c-1 20 7 32 28 27v20c-31 9-61-2-59-35zM48-53c0 20 12 33 32 33 41-3 63-29 60-74-43 2-92-5-92 41" id="J"/><path fill="#333" d="M177-190C167-65 218 103 67 71c-23-6-38-20-44-43l32-5c15 47 100 32 89-28v-30C133-14 115 1 83 1 29 1 15-40 15-95c0-56 16-97 71-98 29-1 48 16 59 35 1-10 0-23 2-32h30zM94-22c36 0 50-32 50-73 0-42-14-75-50-75-39 0-46 34-46 75s6 73 46 73" id="K"/><path fill="#333" d="M114-163C36-179 61-72 57 0H25l-1-190h30c1 12-1 29 2 39 6-27 23-49 58-41v29" id="L"/><path fill="#333" d="M210-169c-67 3-38 105-44 169h-31v-121c0-29-5-50-35-48C34-165 62-65 56 0H25l-1-190h30c1 10-1 24 2 32 10-44 99-50 107 0 11-21 27-35 58-36 85-2 47 119 55 194h-31v-121c0-29-5-49-35-48" id="M"/><path fill="#333" d="M33 0v-38h34V0H33" id="N"/><path fill="#333" d="M106-169C34-169 62-67 57 0H25v-261h32l-1 103c12-21 28-36 61-36 89 0 53 116 60 194h-32v-121c2-32-8-49-39-48" id="O"/><g id="b"><use transform="matrix(0.08641975308641976,0,0,0.08641975308641976,0,0)" xlink:href="#F"/><use transform="matrix(0.08641975308641976,0,0,0.08641975308641976,8.641975308641976,0)" xlink:href="#G"/><use transform="matrix(0.08641975308641976,0,0,0.08641975308641976,25.925925925925927,0)" xlink:href="#H"/><use transform="matrix(0.08641975308641976,0,0,0.08641975308641976,36.20987654320988,0)" xlink:href="#I"/><use transform="matrix(0.08641975308641976,0,0,0.08641975308641976,53.49382716049383,0)" xlink:href="#D"/><use transform="matrix(0.08641975308641976,0,0,0.08641975308641976,60.320987654321,0)" xlink:href="#J"/><use transform="matrix(0.08641975308641976,0,0,0.08641975308641976,77.60493827160495,0)" xlink:href="#K"/><use transform="matrix(0.08641975308641976,0,0,0.08641975308641976,94.8888888888889,0)" xlink:href="#L"/><use transform="matrix(0.08641975308641976,0,0,0.08641975308641976,105.17283950617285,0)" xlink:href="#J"/><use transform="matrix(0.08641975308641976,0,0,0.08641975308641976,122.4567901234568,0)" xlink:href="#M"/><use transform="matrix(0.08641975308641976,0,0,0.08641975308641976,148.2962962962963,0)" xlink:href="#M"/><use transform="matrix(0.08641975308641976,0,0,0.08641975308641976,174.13580246913583,0)" xlink:href="#C"/><use transform="matrix(0.08641975308641976,0,0,0.08641975308641976,191.41975308641977,0)" xlink:href="#N"/><use transform="matrix(0.08641975308641976,0,0,0.08641975308641976,200.06172839506175,0)" xlink:href="#O"/><use transform="matrix(0.08641975308641976,0,0,0.08641975308641976,217.3456790123457,0)" xlink:href="#F"/><use transform="matrix(0.08641975308641976,0,0,0.08641975308641976,225.98765432098767,0)" xlink:href="#M"/><use transform="matrix(0.08641975308641976,0,0,0.08641975308641976,251.8271604938272,0)" xlink:href="#E"/></g><path fill="#333" d="M101-234c-31-9-42 10-38 44h38v23H63V0H32v-167H5v-23h27c-7-52 17-82 69-68v24" id="P"/><path fill="#333" d="M141 0L90-78 38 0H4l68-98-65-92h35l48 74 47-74h35l-64 92 68 98h-35" id="Q"/><path fill="#333" d="M115-194c53 0 69 39 70 98 0 66-23 100-70 100C84 3 66-7 56-30L54 0H23l1-261h32v101c10-23 28-34 59-34zm-8 174c40 0 45-34 45-75 0-40-5-75-45-74-42 0-51 32-51 76 0 43 10 73 51 73" id="R"/><path fill="#333" d="M100-194c62-1 85 37 85 99 1 63-27 99-86 99S16-35 15-95c0-66 28-99 85-99zM99-20c44 1 53-31 53-75 0-43-8-75-51-75s-53 32-53 75 10 74 51 75" id="S"/><g id="c"><use transform="matrix(0.08641975308641976,0,0,0.08641975308641976,0,0)" xlink:href="#F"/><use transform="matrix(0.08641975308641976,0,0,0.08641975308641976,8.641975308641976,0)" xlink:href="#G"/><use transform="matrix(0.08641975308641976,0,0,0.08641975308641976,25.925925925925927,0)" xlink:href="#H"/><use transform="matrix(0.08641975308641976,0,0,0.08641975308641976,36.20987654320988,0)" xlink:href="#P"/><use transform="matrix(0.08641975308641976,0,0,0.08641975308641976,44.851851851851855,0)" xlink:href="#E"/><use transform="matrix(0.08641975308641976,0,0,0.08641975308641976,51.679012345679006,0)" xlink:href="#C"/><use transform="matrix(0.08641975308641976,0,0,0.08641975308641976,68.96296296296296,0)" xlink:href="#Q"/><use transform="matrix(0.08641975308641976,0,0,0.08641975308641976,84.51851851851852,0)" xlink:href="#R"/><use transform="matrix(0.08641975308641976,0,0,0.08641975308641976,101.80246913580245,0)" xlink:href="#S"/><use transform="matrix(0.08641975308641976,0,0,0.08641975308641976,119.08641975308642,0)" xlink:href="#Q"/></g><path fill="#333" d="M143 0L79-87 56-68V0H24v-261h32v163l83-92h37l-77 82L181 0h-38" id="T"/><path fill="#333" d="M117-194c89-4 53 116 60 194h-32v-121c0-31-8-49-39-48C34-167 62-67 57 0H25l-1-190h30c1 10-1 24 2 32 11-22 29-35 61-36" id="U"/><g id="d"><use transform="matrix(0.08641975308641976,0,0,0.08641975308641976,0,0)" xlink:href="#F"/><use transform="matrix(0.08641975308641976,0,0,0.08641975308641976,8.641975308641976,0)" xlink:href="#G"/><use transform="matrix(0.08641975308641976,0,0,0.08641975308641976,25.925925925925927,0)" xlink:href="#H"/><use transform="matrix(0.08641975308641976,0,0,0.08641975308641976,36.20987654320988,0)" xlink:href="#P"/><use transform="matrix(0.08641975308641976,0,0,0.08641975308641976,44.851851851851855,0)" xlink:href="#S"/><use transform="matrix(0.08641975308641976,0,0,0.08641975308641976,62.13580246913581,0)" xlink:href="#L"/><use transform="matrix(0.08641975308641976,0,0,0.08641975308641976,72.41975308641976,0)" xlink:href="#M"/><use transform="matrix(0.08641975308641976,0,0,0.08641975308641976,98.25925925925927,0)" xlink:href="#B"/><use transform="matrix(0.08641975308641976,0,0,0.08641975308641976,115.54320987654322,0)" xlink:href="#E"/><use transform="matrix(0.08641975308641976,0,0,0.08641975308641976,122.37037037037038,0)" xlink:href="#J"/><use transform="matrix(0.08641975308641976,0,0,0.08641975308641976,139.65432098765433,0)" xlink:href="#D"/><use transform="matrix(0.08641975308641976,0,0,0.08641975308641976,146.4814814814815,0)" xlink:href="#L"/><use transform="matrix(0.08641975308641976,0,0,0.08641975308641976,156.76543209876544,0)" xlink:href="#C"/><use transform="matrix(0.08641975308641976,0,0,0.08641975308641976,174.0493827160494,0)" xlink:href="#H"/><use transform="matrix(0.08641975308641976,0,0,0.08641975308641976,184.33333333333334,0)" xlink:href="#L"/><use transform="matrix(0.08641975308641976,0,0,0.08641975308641976,194.6172839506173,0)" xlink:href="#C"/><use transform="matrix(0.08641975308641976,0,0,0.08641975308641976,211.90123456790127,0)" xlink:href="#E"/><use transform="matrix(0.08641975308641976,0,0,0.08641975308641976,218.7283950617284,0)" xlink:href="#S"/><use transform="matrix(0.08641975308641976,0,0,0.08641975308641976,236.01234567901238,0)" xlink:href="#S"/><use transform="matrix(0.08641975308641976,0,0,0.08641975308641976,253.29629629629633,0)" xlink:href="#T"/><use transform="matrix(0.08641975308641976,0,0,0.08641975308641976,268.85185185185185,0)" xlink:href="#D"/><use transform="matrix(0.08641975308641976,0,0,0.08641975308641976,275.679012345679,0)" xlink:href="#U"/><use transform="matrix(0.08641975308641976,0,0,0.08641975308641976,292.96296296296293,0)" xlink:href="#K"/></g><path fill="#333" d="M212-179c-10-28-35-45-73-45-59 0-87 40-87 99 0 60 29 101 89 101 43 0 62-24 78-52l27 14C228-24 195 4 139 4 59 4 22-46 18-125c-6-104 99-153 187-111 19 9 31 26 39 46" id="V"/><g id="e"><use transform="matrix(0.08641975308641976,0,0,0.08641975308641976,0,0)" xlink:href="#V"/><use transform="matrix(0.08641975308641976,0,0,0.08641975308641976,22.38271604938272,0)" xlink:href="#S"/><use transform="matrix(0.08641975308641976,0,0,0.08641975308641976,39.66666666666667,0)" xlink:href="#U"/><use transform="matrix(0.08641975308641976,0,0,0.08641975308641976,56.95061728395062,0)" xlink:href="#F"/><use transform="matrix(0.08641975308641976,0,0,0.08641975308641976,65.5925925925926,0)" xlink:href="#J"/><use transform="matrix(0.08641975308641976,0,0,0.08641975308641976,82.87654320987654,0)" xlink:href="#A"/><use transform="matrix(0.08641975308641976,0,0,0.08641975308641976,98.43209876543212,0)" xlink:href="#F"/></g><g id="f"><use transform="matrix(0.08641975308641976,0,0,0.08641975308641976,0,0)" xlink:href="#D"/><use transform="matrix(0.08641975308641976,0,0,0.08641975308641976,6.8271604938271615,0)" xlink:href="#U"/><use transform="matrix(0.08641975308641976,0,0,0.08641975308641976,24.111111111111114,0)" xlink:href="#I"/><use transform="matrix(0.08641975308641976,0,0,0.08641975308641976,41.39506172839506,0)" xlink:href="#C"/><use transform="matrix(0.08641975308641976,0,0,0.08641975308641976,58.679012345679006,0)" xlink:href="#Q"/><use transform="matrix(0.08641975308641976,0,0,0.08641975308641976,74.23456790123457,0)" xlink:href="#N"/><use transform="matrix(0.08641975308641976,0,0,0.08641975308641976,82.87654320987654,0)" xlink:href="#O"/><use transform="matrix(0.08641975308641976,0,0,0.08641975308641976,100.16049382716048,0)" xlink:href="#F"/><use transform="matrix(0.08641975308641976,0,0,0.08641975308641976,108.80246913580245,0)" xlink:href="#M"/><use transform="matrix(0.08641975308641976,0,0,0.08641975308641976,134.64197530864197,0)" xlink:href="#E"/></g><path fill="#333" d="M135-143c-3-34-86-38-87 0 15 53 115 12 119 90S17 21 10-45l28-5c4 36 97 45 98 0-10-56-113-15-118-90-4-57 82-63 122-42 12 7 21 19 24 35" id="W"/><g id="g"><use transform="matrix(0.1111111111111111,0,0,0.1111111111111111,0,0)" xlink:href="#W"/><use transform="matrix(0.1111111111111111,0,0,0.1111111111111111,20,0)" xlink:href="#B"/><use transform="matrix(0.1111111111111111,0,0,0.1111111111111111,42.22222222222222,0)" xlink:href="#I"/><use transform="matrix(0.1111111111111111,0,0,0.1111111111111111,64.44444444444444,0)" xlink:href="#H"/><use transform="matrix(0.1111111111111111,0,0,0.1111111111111111,77.66666666666666,0)" xlink:href="#W"/><use transform="matrix(0.1111111111111111,0,0,0.1111111111111111,97.66666666666666,0)" xlink:href="#B"/><use transform="matrix(0.1111111111111111,0,0,0.1111111111111111,119.88888888888889,0)" xlink:href="#I"/><use transform="matrix(0.1111111111111111,0,0,0.1111111111111111,142.11111111111111,0)" xlink:href="#N"/><use transform="matrix(0.1111111111111111,0,0,0.1111111111111111,153.22222222222223,0)" xlink:href="#O"/><use transform="matrix(0.1111111111111111,0,0,0.1111111111111111,175.44444444444446,0)" xlink:href="#F"/><use transform="matrix(0.1111111111111111,0,0,0.1111111111111111,186.55555555555557,0)" xlink:href="#M"/><use transform="matrix(0.1111111111111111,0,0,0.1111111111111111,219.7777777777778,0)" xlink:href="#E"/></g><g id="h"><use transform="matrix(0.1111111111111111,0,0,0.1111111111111111,0,0)" xlink:href="#W"/><use transform="matrix(0.1111111111111111,0,0,0.1111111111111111,20,0)" xlink:href="#B"/><use transform="matrix(0.1111111111111111,0,0,0.1111111111111111,42.22222222222222,0)" xlink:href="#I"/><use transform="matrix(0.1111111111111111,0,0,0.1111111111111111,64.44444444444444,0)" xlink:href="#N"/><use transform="matrix(0.1111111111111111,0,0,0.1111111111111111,75.55555555555556,0)" xlink:href="#O"/><use transform="matrix(0.1111111111111111,0,0,0.1111111111111111,97.77777777777777,0)" xlink:href="#F"/><use transform="matrix(0.1111111111111111,0,0,0.1111111111111111,108.88888888888889,0)" xlink:href="#M"/><use transform="matrix(0.1111111111111111,0,0,0.1111111111111111,142.11111111111111,0)" xlink:href="#E"/></g><g id="i"><use transform="matrix(0.1111111111111111,0,0,0.1111111111111111,0,0)" xlink:href="#U"/><use transform="matrix(0.1111111111111111,0,0,0.1111111111111111,22.22222222222222,0)" xlink:href="#S"/><use transform="matrix(0.1111111111111111,0,0,0.1111111111111111,44.44444444444444,0)" xlink:href="#L"/><use transform="matrix(0.1111111111111111,0,0,0.1111111111111111,57.666666666666664,0)" xlink:href="#I"/><use transform="matrix(0.1111111111111111,0,0,0.1111111111111111,79.88888888888889,0)" xlink:href="#H"/><use transform="matrix(0.1111111111111111,0,0,0.1111111111111111,93.11111111111111,0)" xlink:href="#C"/><use transform="matrix(0.1111111111111111,0,0,0.1111111111111111,115.33333333333336,0)" xlink:href="#W"/><use transform="matrix(0.1111111111111111,0,0,0.1111111111111111,135.33333333333334,0)" xlink:href="#F"/><use transform="matrix(0.1111111111111111,0,0,0.1111111111111111,146.44444444444446,0)" xlink:href="#N"/><use transform="matrix(0.1111111111111111,0,0,0.1111111111111111,157.55555555555557,0)" xlink:href="#O"/><use transform="matrix(0.1111111111111111,0,0,0.1111111111111111,179.7777777777778,0)" xlink:href="#F"/><use transform="matrix(0.1111111111111111,0,0,0.1111111111111111,190.8888888888889,0)" xlink:href="#M"/><use transform="matrix(0.1111111111111111,0,0,0.1111111111111111,224.11111111111114,0)" xlink:href="#E"/></g><g id="j"><use transform="matrix(0.1111111111111111,0,0,0.1111111111111111,0,0)" xlink:href="#W"/><use transform="matrix(0.1111111111111111,0,0,0.1111111111111111,20,0)" xlink:href="#B"/><use transform="matrix(0.1111111111111111,0,0,0.1111111111111111,42.22222222222222,0)" xlink:href="#I"/><use transform="matrix(0.1111111111111111,0,0,0.1111111111111111,64.44444444444444,0)" xlink:href="#H"/><use transform="matrix(0.1111111111111111,0,0,0.1111111111111111,77.66666666666666,0)" xlink:href="#S"/><use transform="matrix(0.1111111111111111,0,0,0.1111111111111111,99.88888888888889,0)" xlink:href="#B"/><use transform="matrix(0.1111111111111111,0,0,0.1111111111111111,122.1111111111111,0)" xlink:href="#C"/><use transform="matrix(0.1111111111111111,0,0,0.1111111111111111,144.33333333333334,0)" xlink:href="#W"/><use transform="matrix(0.1111111111111111,0,0,0.1111111111111111,164.33333333333334,0)" xlink:href="#F"/><use transform="matrix(0.1111111111111111,0,0,0.1111111111111111,175.44444444444446,0)" xlink:href="#N"/><use transform="matrix(0.1111111111111111,0,0,0.1111111111111111,186.55555555555557,0)" xlink:href="#O"/><use transform="matrix(0.1111111111111111,0,0,0.1111111111111111,208.7777777777778,0)" xlink:href="#F"/><use transform="matrix(0.1111111111111111,0,0,0.1111111111111111,219.8888888888889,0)" xlink:href="#M"/><use transform="matrix(0.1111111111111111,0,0,0.1111111111111111,253.11111111111114,0)" xlink:href="#E"/></g><g id="k"><use transform="matrix(0.1111111111111111,0,0,0.1111111111111111,0,0)" xlink:href="#U"/><use transform="matrix(0.1111111111111111,0,0,0.1111111111111111,22.22222222222222,0)" xlink:href="#S"/><use transform="matrix(0.1111111111111111,0,0,0.1111111111111111,44.44444444444444,0)" xlink:href="#L"/><use transform="matrix(0.1111111111111111,0,0,0.1111111111111111,57.666666666666664,0)" xlink:href="#I"/><use transform="matrix(0.1111111111111111,0,0,0.1111111111111111,79.88888888888889,0)" xlink:href="#H"/><use transform="matrix(0.1111111111111111,0,0,0.1111111111111111,93.11111111111111,0)" xlink:href="#S"/><use transform="matrix(0.1111111111111111,0,0,0.1111111111111111,115.33333333333336,0)" xlink:href="#B"/><use transform="matrix(0.1111111111111111,0,0,0.1111111111111111,137.55555555555557,0)" xlink:href="#C"/><use transform="matrix(0.1111111111111111,0,0,0.1111111111111111,159.7777777777778,0)" xlink:href="#W"/><use transform="matrix(0.1111111111111111,0,0,0.1111111111111111,179.7777777777778,0)" xlink:href="#F"/><use transform="matrix(0.1111111111111111,0,0,0.1111111111111111,190.8888888888889,0)" xlink:href="#N"/><use transform="matrix(0.1111111111111111,0,0,0.1111111111111111,202.00000000000003,0)" xlink:href="#O"/><use transform="matrix(0.1111111111111111,0,0,0.1111111111111111,224.22222222222226,0)" xlink:href="#F"/><use transform="matrix(0.1111111111111111,0,0,0.1111111111111111,235.33333333333337,0)" xlink:href="#M"/><use transform="matrix(0.1111111111111111,0,0,0.1111111111111111,268.5555555555556,0)" xlink:href="#E"/></g><g id="l"><use transform="matrix(0.1111111111111111,0,0,0.1111111111111111,0,0)" xlink:href="#U"/><use transform="matrix(0.1111111111111111,0,0,0.1111111111111111,22.22222222222222,0)" xlink:href="#S"/><use transform="matrix(0.1111111111111111,0,0,0.1111111111111111,44.44444444444444,0)" xlink:href="#L"/><use transform="matrix(0.1111111111111111,0,0,0.1111111111111111,57.666666666666664,0)" xlink:href="#I"/><use transform="matrix(0.1111111111111111,0,0,0.1111111111111111,79.88888888888889,0)" xlink:href="#H"/><use transform="matrix(0.1111111111111111,0,0,0.1111111111111111,93.11111111111111,0)" xlink:href="#U"/><use transform="matrix(0.1111111111111111,0,0,0.1111111111111111,115.33333333333336,0)" xlink:href="#S"/><use transform="matrix(0.1111111111111111,0,0,0.1111111111111111,137.55555555555557,0)" xlink:href="#L"/><use transform="matrix(0.1111111111111111,0,0,0.1111111111111111,150.7777777777778,0)" xlink:href="#I"/><use transform="matrix(0.1111111111111111,0,0,0.1111111111111111,173.00000000000003,0)" xlink:href="#N"/><use transform="matrix(0.1111111111111111,0,0,0.1111111111111111,184.11111111111114,0)" xlink:href="#O"/><use transform="matrix(0.1111111111111111,0,0,0.1111111111111111,206.33333333333337,0)" xlink:href="#F"/><use transform="matrix(0.1111111111111111,0,0,0.1111111111111111,217.44444444444449,0)" xlink:href="#M"/><use transform="matrix(0.1111111111111111,0,0,0.1111111111111111,250.6666666666667,0)" xlink:href="#E"/></g><g id="m"><use transform="matrix(0.1111111111111111,0,0,0.1111111111111111,0,0)" xlink:href="#W"/><use transform="matrix(0.1111111111111111,0,0,0.1111111111111111,20,0)" xlink:href="#B"/><use transform="matrix(0.1111111111111111,0,0,0.1111111111111111,42.22222222222222,0)" xlink:href="#I"/><use transform="matrix(0.1111111111111111,0,0,0.1111111111111111,64.44444444444444,0)" xlink:href="#H"/><use transform="matrix(0.1111111111111111,0,0,0.1111111111111111,77.66666666666666,0)" xlink:href="#C"/><use transform="matrix(0.1111111111111111,0,0,0.1111111111111111,99.88888888888889,0)" xlink:href="#W"/><use transform="matrix(0.1111111111111111,0,0,0.1111111111111111,119.88888888888889,0)" xlink:href="#F"/><use transform="matrix(0.1111111111111111,0,0,0.1111111111111111,131,0)" xlink:href="#N"/><use transform="matrix(0.1111111111111111,0,0,0.1111111111111111,142.11111111111111,0)" xlink:href="#O"/><use transform="matrix(0.1111111111111111,0,0,0.1111111111111111,164.33333333333334,0)" xlink:href="#F"/><use transform="matrix(0.1111111111111111,0,0,0.1111111111111111,175.44444444444446,0)" xlink:href="#M"/><use transform="matrix(0.1111111111111111,0,0,0.1111111111111111,208.66666666666669,0)" xlink:href="#E"/></g><g id="n"><use transform="matrix(0.1111111111111111,0,0,0.1111111111111111,0,0)" xlink:href="#U"/><use transform="matrix(0.1111111111111111,0,0,0.1111111111111111,22.22222222222222,0)" xlink:href="#S"/><use transform="matrix(0.1111111111111111,0,0,0.1111111111111111,44.44444444444444,0)" xlink:href="#L"/><use transform="matrix(0.1111111111111111,0,0,0.1111111111111111,57.666666666666664,0)" xlink:href="#I"/><use transform="matrix(0.1111111111111111,0,0,0.1111111111111111,79.88888888888889,0)" xlink:href="#N"/><use transform="matrix(0.1111111111111111,0,0,0.1111111111111111,91,0)" xlink:href="#O"/><use transform="matrix(0.1111111111111111,0,0,0.1111111111111111,113.22222222222223,0)" xlink:href="#F"/><use transform="matrix(0.1111111111111111,0,0,0.1111111111111111,124.33333333333336,0)" xlink:href="#M"/><use transform="matrix(0.1111111111111111,0,0,0.1111111111111111,157.55555555555557,0)" xlink:href="#E"/></g><g id="o"><use transform="matrix(0.1111111111111111,0,0,0.1111111111111111,0,0)" xlink:href="#J"/><use transform="matrix(0.1111111111111111,0,0,0.1111111111111111,22.22222222222222,0)" xlink:href="#R"/><use transform="matrix(0.1111111111111111,0,0,0.1111111111111111,44.44444444444444,0)" xlink:href="#S"/><use transform="matrix(0.1111111111111111,0,0,0.1111111111111111,66.66666666666666,0)" xlink:href="#B"/><use transform="matrix(0.1111111111111111,0,0,0.1111111111111111,88.88888888888889,0)" xlink:href="#F"/><use transform="matrix(0.1111111111111111,0,0,0.1111111111111111,100,0)" xlink:href="#N"/><use transform="matrix(0.1111111111111111,0,0,0.1111111111111111,111.11111111111111,0)" xlink:href="#O"/><use transform="matrix(0.1111111111111111,0,0,0.1111111111111111,133.33333333333334,0)" xlink:href="#F"/><use transform="matrix(0.1111111111111111,0,0,0.1111111111111111,144.44444444444446,0)" xlink:href="#M"/><use transform="matrix(0.1111111111111111,0,0,0.1111111111111111,177.66666666666669,0)" xlink:href="#E"/></g><path fill="#333" d="M145-31C134-9 116 4 85 4 32 4 16-35 15-94c0-59 17-99 70-100 32-1 48 14 60 33 0-11-1-24 2-32h30l-1 268h-32zM93-21c41 0 51-33 51-76s-8-73-50-73c-40 0-46 35-46 75s5 74 45 74" id="X"/><g id="p"><use transform="matrix(0.1111111111111111,0,0,0.1111111111111111,0,0)" xlink:href="#X"/><use transform="matrix(0.1111111111111111,0,0,0.1111111111111111,22.22222222222222,0)" xlink:href="#B"/><use transform="matrix(0.1111111111111111,0,0,0.1111111111111111,44.44444444444444,0)" xlink:href="#C"/><use transform="matrix(0.1111111111111111,0,0,0.1111111111111111,66.66666666666666,0)" xlink:href="#W"/><use transform="matrix(0.1111111111111111,0,0,0.1111111111111111,86.66666666666666,0)" xlink:href="#F"/><use transform="matrix(0.1111111111111111,0,0,0.1111111111111111,97.77777777777777,0)" xlink:href="#D"/><use transform="matrix(0.1111111111111111,0,0,0.1111111111111111,106.55555555555554,0)" xlink:href="#S"/><use transform="matrix(0.1111111111111111,0,0,0.1111111111111111,128.77777777777777,0)" xlink:href="#U"/><use transform="matrix(0.1111111111111111,0,0,0.1111111111111111,151,0)" xlink:href="#W"/><use transform="matrix(0.1111111111111111,0,0,0.1111111111111111,171,0)" xlink:href="#N"/><use transform="matrix(0.1111111111111111,0,0,0.1111111111111111,182.11111111111111,0)" xlink:href="#O"/><use transform="matrix(0.1111111111111111,0,0,0.1111111111111111,204.33333333333334,0)" xlink:href="#F"/><use transform="matrix(0.1111111111111111,0,0,0.1111111111111111,215.44444444444446,0)" xlink:href="#M"/><use transform="matrix(0.1111111111111111,0,0,0.1111111111111111,248.6666666666667,0)" xlink:href="#E"/></g><g id="q"><use transform="matrix(0.1111111111111111,0,0,0.1111111111111111,0,0)" xlink:href="#K"/><use transform="matrix(0.1111111111111111,0,0,0.1111111111111111,22.22222222222222,0)" xlink:href="#L"/><use transform="matrix(0.1111111111111111,0,0,0.1111111111111111,35.44444444444444,0)" xlink:href="#D"/><use transform="matrix(0.1111111111111111,0,0,0.1111111111111111,44.22222222222222,0)" xlink:href="#E"/><use transform="matrix(0.1111111111111111,0,0,0.1111111111111111,53,0)" xlink:href="#E"/><use transform="matrix(0.1111111111111111,0,0,0.1111111111111111,61.77777777777777,0)" xlink:href="#C"/><use transform="matrix(0.1111111111111111,0,0,0.1111111111111111,84,0)" xlink:href="#W"/><use transform="matrix(0.1111111111111111,0,0,0.1111111111111111,104,0)" xlink:href="#N"/><use transform="matrix(0.1111111111111111,0,0,0.1111111111111111,115.1111111111111,0)" xlink:href="#O"/><use transform="matrix(0.1111111111111111,0,0,0.1111111111111111,137.33333333333334,0)" xlink:href="#F"/><use transform="matrix(0.1111111111111111,0,0,0.1111111111111111,148.44444444444446,0)" xlink:href="#M"/><use transform="matrix(0.1111111111111111,0,0,0.1111111111111111,181.66666666666669,0)" xlink:href="#E"/></g><g id="r"><use transform="matrix(0.1111111111111111,0,0,0.1111111111111111,0,0)" xlink:href="#D"/><use transform="matrix(0.1111111111111111,0,0,0.1111111111111111,8.777777777777777,0)" xlink:href="#U"/><use transform="matrix(0.1111111111111111,0,0,0.1111111111111111,31,0)" xlink:href="#F"/><use transform="matrix(0.1111111111111111,0,0,0.1111111111111111,42.111111111111114,0)" xlink:href="#C"/><use transform="matrix(0.1111111111111111,0,0,0.1111111111111111,64.33333333333334,0)" xlink:href="#L"/><use transform="matrix(0.1111111111111111,0,0,0.1111111111111111,77.55555555555557,0)" xlink:href="#G"/><use transform="matrix(0.1111111111111111,0,0,0.1111111111111111,99.7777777777778,0)" xlink:href="#L"/><use transform="matrix(0.1111111111111111,0,0,0.1111111111111111,113.00000000000003,0)" xlink:href="#C"/><use transform="matrix(0.1111111111111111,0,0,0.1111111111111111,135.22222222222226,0)" xlink:href="#F"/><use transform="matrix(0.1111111111111111,0,0,0.1111111111111111,146.33333333333337,0)" xlink:href="#N"/><use transform="matrix(0.1111111111111111,0,0,0.1111111111111111,157.44444444444449,0)" xlink:href="#O"/><use transform="matrix(0.1111111111111111,0,0,0.1111111111111111,179.6666666666667,0)" xlink:href="#F"/><use transform="matrix(0.1111111111111111,0,0,0.1111111111111111,190.77777777777783,0)" xlink:href="#M"/><use transform="matrix(0.1111111111111111,0,0,0.1111111111111111,224.00000000000006,0)" xlink:href="#E"/></g><path fill="#333" d="M108 0H70L1-190h34L89-25l56-165h34" id="Y"/><g id="s"><use transform="matrix(0.08641975308641976,0,0,0.08641975308641976,0,0)" xlink:href="#A"/><use transform="matrix(0.08641975308641976,0,0,0.08641975308641976,15.555555555555557,0)" xlink:href="#Y"/><use transform="matrix(0.08641975308641976,0,0,0.08641975308641976,28.777777777777782,0)" xlink:href="#N"/><use transform="matrix(0.08641975308641976,0,0,0.08641975308641976,37.41975308641975,0)" xlink:href="#O"/><use transform="matrix(0.08641975308641976,0,0,0.08641975308641976,54.70370370370371,0)" xlink:href="#F"/><use transform="matrix(0.08641975308641976,0,0,0.08641975308641976,63.345679012345684,0)" xlink:href="#M"/><use transform="matrix(0.08641975308641976,0,0,0.08641975308641976,89.18518518518519,0)" xlink:href="#E"/></g><g id="t"><use transform="matrix(0.08641975308641976,0,0,0.08641975308641976,0,0)" xlink:href="#J"/><use transform="matrix(0.08641975308641976,0,0,0.08641975308641976,17.283950617283953,0)" xlink:href="#R"/><use transform="matrix(0.08641975308641976,0,0,0.08641975308641976,34.567901234567906,0)" xlink:href="#S"/><use transform="matrix(0.08641975308641976,0,0,0.08641975308641976,51.851851851851855,0)" xlink:href="#B"/><use transform="matrix(0.08641975308641976,0,0,0.08641975308641976,69.13580246913581,0)" xlink:href="#F"/><use transform="matrix(0.08641975308641976,0,0,0.08641975308641976,77.77777777777779,0)" xlink:href="#N"/><use transform="matrix(0.08641975308641976,0,0,0.08641975308641976,86.41975308641976,0)" xlink:href="#O"/><use transform="matrix(0.08641975308641976,0,0,0.08641975308641976,103.70370370370371,0)" xlink:href="#F"/><use transform="matrix(0.08641975308641976,0,0,0.08641975308641976,112.34567901234568,0)" xlink:href="#M"/><use transform="matrix(0.08641975308641976,0,0,0.08641975308641976,138.1851851851852,0)" xlink:href="#E"/></g><path fill="#333" d="M24-231v-30h32v30H24zM-9 49c24 4 33-6 33-30v-209h32V24c2 40-23 58-65 49V49" id="Z"/><g id="u"><use transform="matrix(0.08641975308641976,0,0,0.08641975308641976,0,0)" xlink:href="#G"/><use transform="matrix(0.08641975308641976,0,0,0.08641975308641976,17.283950617283953,0)" xlink:href="#L"/><use transform="matrix(0.08641975308641976,0,0,0.08641975308641976,27.567901234567906,0)" xlink:href="#S"/><use transform="matrix(0.08641975308641976,0,0,0.08641975308641976,44.85185185185187,0)" xlink:href="#Z"/><use transform="matrix(0.08641975308641976,0,0,0.08641975308641976,51.67901234567903,0)" xlink:href="#C"/><use transform="matrix(0.08641975308641976,0,0,0.08641975308641976,68.96296296296298,0)" xlink:href="#A"/><use transform="matrix(0.08641975308641976,0,0,0.08641975308641976,84.51851851851853,0)" xlink:href="#F"/><use transform="matrix(0.08641975308641976,0,0,0.08641975308641976,93.16049382716051,0)" xlink:href="#N"/><use transform="matrix(0.08641975308641976,0,0,0.08641975308641976,101.80246913580248,0)" xlink:href="#O"/><use transform="matrix(0.08641975308641976,0,0,0.08641975308641976,119.08641975308643,0)" xlink:href="#F"/><use transform="matrix(0.08641975308641976,0,0,0.08641975308641976,127.7283950617284,0)" xlink:href="#M"/><use transform="matrix(0.08641975308641976,0,0,0.08641975308641976,153.56790123456793,0)" xlink:href="#E"/></g><g id="v"><use transform="matrix(0.08641975308641976,0,0,0.08641975308641976,0,0)" xlink:href="#F"/><use transform="matrix(0.08641975308641976,0,0,0.08641975308641976,8.641975308641976,0)" xlink:href="#G"/><use transform="matrix(0.08641975308641976,0,0,0.08641975308641976,25.925925925925927,0)" xlink:href="#H"/><use transform="matrix(0.08641975308641976,0,0,0.08641975308641976,36.20987654320988,0)" xlink:href="#F"/><use transform="matrix(0.08641975308641976,0,0,0.08641975308641976,44.851851851851855,0)" xlink:href="#J"/><use transform="matrix(0.08641975308641976,0,0,0.08641975308641976,62.13580246913581,0)" xlink:href="#R"/><use transform="matrix(0.08641975308641976,0,0,0.08641975308641976,79.41975308641976,0)" xlink:href="#E"/><use transform="matrix(0.08641975308641976,0,0,0.08641975308641976,86.24691358024693,0)" xlink:href="#C"/><use transform="matrix(0.08641975308641976,0,0,0.08641975308641976,103.53086419753087,0)" xlink:href="#J"/><use transform="matrix(0.08641975308641976,0,0,0.08641975308641976,120.81481481481482,0)" xlink:href="#B"/><use transform="matrix(0.08641975308641976,0,0,0.08641975308641976,138.0987654320988,0)" xlink:href="#H"/><use transform="matrix(0.08641975308641976,0,0,0.08641975308641976,148.38271604938274,0)" xlink:href="#A"/><use transform="matrix(0.08641975308641976,0,0,0.08641975308641976,163.93827160493828,0)" xlink:href="#W"/><use transform="matrix(0.08641975308641976,0,0,0.08641975308641976,179.4938271604938,0)" xlink:href="#W"/><use transform="matrix(0.08641975308641976,0,0,0.08641975308641976,195.04938271604937,0)" xlink:href="#N"/><use transform="matrix(0.08641975308641976,0,0,0.08641975308641976,203.69135802469134,0)" xlink:href="#O"/><use transform="matrix(0.08641975308641976,0,0,0.08641975308641976,220.9753086419753,0)" xlink:href="#F"/><use transform="matrix(0.08641975308641976,0,0,0.08641975308641976,229.61728395061726,0)" xlink:href="#M"/><use transform="matrix(0.08641975308641976,0,0,0.08641975308641976,255.45679012345678,0)" xlink:href="#E"/></g><g id="w"><use transform="matrix(0.08641975308641976,0,0,0.08641975308641976,0,0)" xlink:href="#F"/><use transform="matrix(0.08641975308641976,0,0,0.08641975308641976,8.641975308641976,0)" xlink:href="#G"/><use transform="matrix(0.08641975308641976,0,0,0.08641975308641976,25.925925925925927,0)" xlink:href="#H"/><use transform="matrix(0.08641975308641976,0,0,0.08641975308641976,36.20987654320988,0)" xlink:href="#A"/><use transform="matrix(0.08641975308641976,0,0,0.08641975308641976,51.76543209876544,0)" xlink:href="#W"/><use transform="matrix(0.08641975308641976,0,0,0.08641975308641976,67.32098765432099,0)" xlink:href="#W"/><use transform="matrix(0.08641975308641976,0,0,0.08641975308641976,82.87654320987654,0)" xlink:href="#M"/><use transform="matrix(0.08641975308641976,0,0,0.08641975308641976,108.71604938271604,0)" xlink:href="#J"/><use transform="matrix(0.08641975308641976,0,0,0.08641975308641976,126,0)" xlink:href="#Q"/><use transform="matrix(0.08641975308641976,0,0,0.08641975308641976,141.55555555555554,0)" xlink:href="#I"/><use transform="matrix(0.08641975308641976,0,0,0.08641975308641976,158.8395061728395,0)" xlink:href="#C"/><use transform="matrix(0.08641975308641976,0,0,0.08641975308641976,176.12345679012344,0)" xlink:href="#W"/><use transform="matrix(0.08641975308641976,0,0,0.08641975308641976,191.67901234567898,0)" xlink:href="#D"/><use transform="matrix(0.08641975308641976,0,0,0.08641975308641976,198.50617283950615,0)" xlink:href="#K"/><use transform="matrix(0.08641975308641976,0,0,0.08641975308641976,215.7901234567901,0)" xlink:href="#U"/><use transform="matrix(0.08641975308641976,0,0,0.08641975308641976,233.07407407407405,0)" xlink:href="#N"/><use transform="matrix(0.08641975308641976,0,0,0.08641975308641976,241.71604938271602,0)" xlink:href="#O"/><use transform="matrix(0.08641975308641976,0,0,0.08641975308641976,259,0)" xlink:href="#F"/><use transform="matrix(0.08641975308641976,0,0,0.08641975308641976,267.641975308642,0)" xlink:href="#M"/><use transform="matrix(0.08641975308641976,0,0,0.08641975308641976,293.48148148148147,0)" xlink:href="#E"/></g><g id="x"><use transform="matrix(0.08641975308641976,0,0,0.08641975308641976,0,0)" xlink:href="#F"/><use transform="matrix(0.08641975308641976,0,0,0.08641975308641976,8.641975308641976,0)" xlink:href="#G"/><use transform="matrix(0.08641975308641976,0,0,0.08641975308641976,25.925925925925927,0)" xlink:href="#H"/><use transform="matrix(0.08641975308641976,0,0,0.08641975308641976,36.20987654320988,0)" xlink:href="#K"/><use transform="matrix(0.08641975308641976,0,0,0.08641975308641976,53.49382716049383,0)" xlink:href="#L"/><use transform="matrix(0.08641975308641976,0,0,0.08641975308641976,63.777777777777786,0)" xlink:href="#D"/><use transform="matrix(0.08641975308641976,0,0,0.08641975308641976,70.60493827160495,0)" xlink:href="#I"/><use transform="matrix(0.08641975308641976,0,0,0.08641975308641976,87.8888888888889,0)" xlink:href="#N"/><use transform="matrix(0.08641975308641976,0,0,0.08641975308641976,96.53086419753087,0)" xlink:href="#O"/><use transform="matrix(0.08641975308641976,0,0,0.08641975308641976,113.81481481481482,0)" xlink:href="#F"/><use transform="matrix(0.08641975308641976,0,0,0.08641975308641976,122.4567901234568,0)" xlink:href="#M"/><use transform="matrix(0.08641975308641976,0,0,0.08641975308641976,148.2962962962963,0)" xlink:href="#E"/></g><path fill="#333" d="M179-190L93 31C79 59 56 82 12 73V49c39 6 53-20 64-50L1-190h34L92-34l54-156h33" id="aa"/><g id="y"><use transform="matrix(0.08641975308641976,0,0,0.08641975308641976,0,0)" xlink:href="#F"/><use transform="matrix(0.08641975308641976,0,0,0.08641975308641976,8.641975308641976,0)" xlink:href="#G"/><use transform="matrix(0.08641975308641976,0,0,0.08641975308641976,25.925925925925927,0)" xlink:href="#H"/><use transform="matrix(0.08641975308641976,0,0,0.08641975308641976,36.20987654320988,0)" xlink:href="#E"/><use transform="matrix(0.08641975308641976,0,0,0.08641975308641976,43.03703703703704,0)" xlink:href="#J"/><use transform="matrix(0.08641975308641976,0,0,0.08641975308641976,60.32098765432099,0)" xlink:href="#R"/><use transform="matrix(0.08641975308641976,0,0,0.08641975308641976,77.60493827160494,0)" xlink:href="#aa"/><use transform="matrix(0.08641975308641976,0,0,0.08641975308641976,93.16049382716048,0)" xlink:href="#L"/><use transform="matrix(0.08641975308641976,0,0,0.08641975308641976,103.44444444444443,0)" xlink:href="#D"/><use transform="matrix(0.08641975308641976,0,0,0.08641975308641976,110.27160493827162,0)" xlink:href="#U"/><use transform="matrix(0.08641975308641976,0,0,0.08641975308641976,127.55555555555554,0)" xlink:href="#F"/><use transform="matrix(0.08641975308641976,0,0,0.08641975308641976,136.19753086419755,0)" xlink:href="#O"/><use transform="matrix(0.08641975308641976,0,0,0.08641975308641976,153.4814814814815,0)" xlink:href="#C"/><use transform="matrix(0.08641975308641976,0,0,0.08641975308641976,170.76543209876544,0)" xlink:href="#N"/><use transform="matrix(0.08641975308641976,0,0,0.08641975308641976,179.40740740740742,0)" xlink:href="#O"/><use transform="matrix(0.08641975308641976,0,0,0.08641975308641976,196.69135802469137,0)" xlink:href="#F"/><use transform="matrix(0.08641975308641976,0,0,0.08641975308641976,205.33333333333334,0)" xlink:href="#M"/><use transform="matrix(0.08641975308641976,0,0,0.08641975308641976,231.17283950617286,0)" xlink:href="#E"/></g></defs></g></svg>