<svg xmlns="http://www.w3.org/2000/svg" xmlns:xlink="http://www.w3.org/1999/xlink" xmlns:lucid="lucid" width="2160.27" height="2374.17"><g transform="translate(-178.7741951733733 -214.37611541605958)" lucid:page-tab-id="0_0"><path d="M1058.9 240.38a6 6 0 0 1 6-6H1463a6 6 0 0 1 6 6v178.7a6 6 0 0 1-6 6H1064.9a6 6 0 0 1-6-6z" stroke="#5e5e5e" stroke-width="3" fill="#ff9090"/><use xlink:href="#a" transform="matrix(1,0,0,1,1070.9114647500273,246.37611541605958) translate(143.46296296296296 87.51388888888889)"/><path d="M198.77 591.1a6 6 0 0 1 6-6h398.07a6 6 0 0 1 6 6v178.7a6 6 0 0 1-6 6H204.77a6 6 0 0 1-6-6z" stroke="#5e5e5e" stroke-width="3" fill="#a7a6ff"/><use xlink:href="#b" transform="matrix(1,0,0,1,210.7741951733733,597.089911169712) translate(137.41358024691357 87.51388888888889)"/><use xlink:href="#c" transform="matrix(1,0,0,1,210.7741951733733,597.089911169712) translate(206.46296296296296 87.51388888888889)"/><path d="M768.84 591.1a6 6 0 0 1 6-6h398.07a6 6 0 0 1 6 6v178.7a6 6 0 0 1-6 6H774.85a6 6 0 0 1-6-6z" stroke="#5e5e5e" stroke-width="3" fill="#a7a6ff"/><use xlink:href="#d" transform="matrix(1,0,0,1,780.8428299617003,597.089911169712) translate(108.89506172839505 87.51388888888889)"/><use xlink:href="#e" transform="matrix(1,0,0,1,780.8428299617003,597.089911169712) translate(176.21604938271605 87.51388888888889)"/><path d="M1338.9 591.1a6 6 0 0 1 6-6H1743a6 6 0 0 1 6 6v178.7a6 6 0 0 1-6 6H1344.9a6 6 0 0 1-6-6z" stroke="#5e5e5e" stroke-width="3" fill="#a7a6ff"/><use xlink:href="#f" transform="matrix(1,0,0,1,1350.9114647500273,597.089911169712) translate(81.28395061728395 87.51388888888889)"/><use xlink:href="#g" transform="matrix(1,0,0,1,1350.9114647500273,597.089911169712) translate(108.93827160493828 87.51388888888889)"/><use xlink:href="#h" transform="matrix(1,0,0,1,1350.9114647500273,597.089911169712) translate(212.55555555555557 87.51388888888889)"/><use xlink:href="#i" transform="matrix(1,0,0,1,1350.9114647500273,597.089911169712) translate(255.76543209876544 87.51388888888889)"/><path d="M1908.98 598.5a6 6 0 0 1 6-6h398.07a6 6 0 0 1 6 6v178.7a6 6 0 0 1-6 6h-398.07a6 6 0 0 1-6-6z" stroke="#5e5e5e" stroke-width="3" fill="#a7a6ff"/><use xlink:href="#j" transform="matrix(1,0,0,1,1920.9800995383541,604.4953324677939) translate(139.96296296296296 87.51388888888889)"/><path d="M1264.95 507.94H2108a6 6 0 0 1 6 6v58.6M1264.97 507.94h-1.02" stroke="#5e5e5e" stroke-width="2" fill="none"/><path d="M2114 587.8l-4.62-14.27h9.27z" stroke="#5e5e5e" stroke-width="2" fill="#5e5e5e"/><path d="M1262.95 507.94H979.88a6 6 0 0 0-6 6v51.18M1262.92 507.94h1.03" stroke="#5e5e5e" stroke-width="2" fill="none"/><path d="M973.88 580.4l-4.64-14.28h9.27z" stroke="#5e5e5e" stroke-width="2" fill="#5e5e5e"/><path d="M1262.95 507.94H409.8a6 6 0 0 0-6 6v51.18M1262.92 507.94h1.03" stroke="#5e5e5e" stroke-width="2" fill="none"/><path d="M403.8 580.4l-4.63-14.28h9.27z" stroke="#5e5e5e" stroke-width="2" fill="#5e5e5e"/><path d="M1054.46 941.8a6 6 0 0 1 6-6h398.07a6 6 0 0 1 6 6v178.72a6 6 0 0 1-6 6h-398.07a6 6 0 0 1-6-6z" stroke="#5e5e5e" stroke-width="3" fill="#b5d6ff"/><use xlink:href="#k" transform="matrix(1,0,0,1,1066.4590066928815,947.8037069233644) translate(40.32098765432099 87.51388888888889)"/><use xlink:href="#l" transform="matrix(1,0,0,1,1066.4590066928815,947.8037069233644) translate(88.0246913580247 87.51388888888889)"/><use xlink:href="#m" transform="matrix(1,0,0,1,1066.4590066928815,947.8037069233644) translate(241.679012345679 87.51388888888889)"/><path d="M973.88 778.27v246.9a6 6 0 0 0 6 6h54.6" stroke="#5e5e5e" stroke-width="2" fill="none"/><path d="M974.88 778.3h-2v-1.03h2z" stroke="#5e5e5e" stroke-width=".05" fill="#5e5e5e"/><path d="M1049.76 1031.16l-14.27 4.64v-9.27z" stroke="#5e5e5e" stroke-width="2" fill="#5e5e5e"/><path d="M1263.95 427.55v61.9" stroke="#5e5e5e" stroke-width="2" fill="none"/><path d="M1264.95 427.58h-2v-1.03h2z" stroke="#5e5e5e" stroke-width=".05" fill="#5e5e5e"/><path d="M1263.95 504.7l-4.64-14.26h9.28z" stroke="#5e5e5e" stroke-width="2" fill="#5e5e5e"/><path d="M1579.68 508.94v56.18M1579.68 508.96v-1.02" stroke="#5e5e5e" stroke-width="2" fill="none"/><path d="M1579.68 580.38l-4.63-14.26h9.27z" stroke="#5e5e5e" stroke-width="2" fill="#5e5e5e"/><path d="M1054.46 1189.45a6 6 0 0 1 6-6h398.07a6 6 0 0 1 6 6v178.72a6 6 0 0 1-6 6h-398.07a6 6 0 0 1-6-6z" stroke="#5e5e5e" stroke-width="3" fill="#b5d6ff"/><use xlink:href="#k" transform="matrix(1,0,0,1,1066.4590066928815,1195.451368338961) translate(28.308641975308632 87.51388888888889)"/><use xlink:href="#n" transform="matrix(1,0,0,1,1066.4590066928815,1195.451368338961) translate(76.01234567901234 87.51388888888889)"/><use xlink:href="#o" transform="matrix(1,0,0,1,1066.4590066928815,1195.451368338961) translate(232.7777777777778 87.51388888888889)"/><path d="M973.88 1025.9v246.9a6 6 0 0 0 6 6h54.6M973.88 1025.94v-1.03" stroke="#5e5e5e" stroke-width="2" fill="none"/><path d="M1049.76 1278.8l-14.27 4.64v-9.27z" stroke="#5e5e5e" stroke-width="2" fill="#5e5e5e"/><path d="M1054.46 1424.72a6 6 0 0 1 6-6h398.07a6 6 0 0 1 6 6v178.72a6 6 0 0 1-6 6h-398.07a6 6 0 0 1-6-6z" stroke="#5e5e5e" stroke-width="3" fill="#b5d6ff"/><use xlink:href="#k" transform="matrix(1,0,0,1,1066.4590066928815,1430.7235172883127) translate(115.29012345679013 71.85763888888889)"/><use xlink:href="#p" transform="matrix(1,0,0,1,1066.4590066928815,1430.7235172883127) translate(162.99382716049382 71.85763888888889)"/><use xlink:href="#q" transform="matrix(1,0,0,1,1066.4590066928815,1430.7235172883127) translate(56.22222222222223 109.19097222222223)"/><use xlink:href="#r" transform="matrix(1,0,0,1,1066.4590066928815,1430.7235172883127) translate(130.54320987654322 109.19097222222223)"/><use xlink:href="#s" transform="matrix(1,0,0,1,1066.4590066928815,1430.7235172883127) translate(178.85185185185185 109.19097222222223)"/><use xlink:href="#t" transform="matrix(1,0,0,1,1066.4590066928815,1430.7235172883127) translate(266.9135802469136 109.19097222222223)"/><path d="M973.88 1221.2v286.88a6 6 0 0 0 6 6h54.6M973.88 1221.2v-1" stroke="#5e5e5e" stroke-width="2" fill="none"/><path d="M1049.76 1514.08l-14.27 4.64v-9.27z" stroke="#5e5e5e" stroke-width="2" fill="#5e5e5e"/><path d="M1054.46 1664.15a6 6 0 0 1 6-6h398.07a6 6 0 0 1 6 6v178.72a6 6 0 0 1-6 6h-398.07a6 6 0 0 1-6-6z" stroke="#5e5e5e" stroke-width="3" fill="#b5d6ff"/><use xlink:href="#u" transform="matrix(1,0,0,1,1066.4590066928815,1670.1517567756316) translate(115.89506172839505 71.85763888888889)"/><use xlink:href="#v" transform="matrix(1,0,0,1,1066.4590066928815,1670.1517567756316) translate(178.03086419753086 71.85763888888889)"/><use xlink:href="#w" transform="matrix(1,0,0,1,1066.4590066928815,1670.1517567756316) translate(57.0864197530864 109.19097222222223)"/><path d="M973.88 1500.6v246.9a6 6 0 0 0 6 6h54.6M973.88 1500.64v-1.03" stroke="#5e5e5e" stroke-width="2" fill="none"/><path d="M1049.76 1753.5l-14.27 4.64v-9.27z" stroke="#5e5e5e" stroke-width="2" fill="#5e5e5e"/><path d="M1054.46 1911.8a6 6 0 0 1 6-6h398.07a6 6 0 0 1 6 6v178.7a6 6 0 0 1-6 6h-398.07a6 6 0 0 1-6-6z" stroke="#5e5e5e" stroke-width="3" fill="#b5d6ff"/><g><use xlink:href="#k" transform="matrix(1,0,0,1,1066.4590066928815,1917.7994181912281) translate(115.29012345679013 87.51388888888889)"/><use xlink:href="#x" transform="matrix(1,0,0,1,1066.4590066928815,1917.7994181912281) translate(162.99382716049382 87.51388888888889)"/></g><path d="M973.88 1748.26v246.9a6 6 0 0 0 6 6h54.6M973.88 1748.3v-1.04" stroke="#5e5e5e" stroke-width="2" fill="none"/><path d="M1049.76 2001.16l-14.27 4.63v-9.28z" stroke="#5e5e5e" stroke-width="2" fill="#5e5e5e"/><path d="M1054.46 2147.07a6 6 0 0 1 6-6h398.07a6 6 0 0 1 6 6v178.72a6 6 0 0 1-6 6h-398.07a6 6 0 0 1-6-6z" stroke="#5e5e5e" stroke-width="3" fill="#b5d6ff"/><g><use xlink:href="#k" transform="matrix(1,0,0,1,1066.4590066928815,2153.0715671405796) translate(140.35185185185185 87.51388888888889)"/><use xlink:href="#y" transform="matrix(1,0,0,1,1066.4590066928815,2153.0715671405796) translate(188.05555555555554 87.51388888888889)"/></g><path d="M973.88 1943.53v286.9a6 6 0 0 0 6 6h54.6M973.88 1943.56v-1.03" stroke="#5e5e5e" stroke-width="2" fill="none"/><path d="M1049.76 2236.43l-14.27 4.63v-9.27z" stroke="#5e5e5e" stroke-width="2" fill="#5e5e5e"/><path d="M1054.46 2383.84a6 6 0 0 1 6-6h398.07a6 6 0 0 1 6 6v178.7a6 6 0 0 1-6 6h-398.07a6 6 0 0 1-6-6z" stroke="#5e5e5e" stroke-width="3" fill="#b5d6ff"/><g><use xlink:href="#z" transform="matrix(1,0,0,1,1066.4590066928815,2389.8350362037913) translate(63.265432098765416 87.51388888888889)"/><use xlink:href="#A" transform="matrix(1,0,0,1,1066.4590066928815,2389.8350362037913) translate(232.21604938271605 87.51388888888889)"/><use xlink:href="#B" transform="matrix(1,0,0,1,1066.4590066928815,2389.8350362037913) translate(275.4259259259259 87.51388888888889)"/></g><path d="M973.88 2180.3v286.9a6 6 0 0 0 6 6h54.6M973.88 2180.32v-1.02" stroke="#5e5e5e" stroke-width="2" fill="none"/><path d="M1049.76 2473.2l-14.27 4.63v-9.27z" stroke="#5e5e5e" stroke-width="2" fill="#5e5e5e"/><defs><path fill="#333" d="M205 0l-28-72H64L36 0H1l101-248h38L239 0h-34zm-38-99l-47-123c-12 45-31 82-46 123h93" id="C"/><path fill="#333" d="M96-169c-40 0-48 33-48 73s9 75 48 75c24 0 41-14 43-38l32 2c-6 37-31 61-74 61-59 0-76-41-82-99-10-93 101-131 147-64 4 7 5 14 7 22l-32 3c-4-21-16-35-41-35" id="D"/><path fill="#333" d="M84 4C-5 8 30-112 23-190h32v120c0 31 7 50 39 49 72-2 45-101 50-169h31l1 190h-30c-1-10 1-25-2-33-11 22-28 36-60 37" id="E"/><path fill="#333" d="M100-194c63 0 86 42 84 106H49c0 40 14 67 53 68 26 1 43-12 49-29l28 8c-11 28-37 45-77 45C44 4 14-33 15-96c1-61 26-98 85-98zm52 81c6-60-76-77-97-28-3 7-6 17-6 28h103" id="F"/><path fill="#333" d="M24-231v-30h32v30H24zM24 0v-190h32V0H24" id="G"/><path fill="#333" d="M24 0v-261h32V0H24" id="H"/><g id="a"><use transform="matrix(0.08641975308641976,0,0,0.08641975308641976,0,0)" xlink:href="#C"/><use transform="matrix(0.08641975308641976,0,0,0.08641975308641976,20.740740740740744,0)" xlink:href="#D"/><use transform="matrix(0.08641975308641976,0,0,0.08641975308641976,36.296296296296305,0)" xlink:href="#D"/><use transform="matrix(0.08641975308641976,0,0,0.08641975308641976,51.851851851851855,0)" xlink:href="#E"/><use transform="matrix(0.08641975308641976,0,0,0.08641975308641976,69.13580246913581,0)" xlink:href="#F"/><use transform="matrix(0.08641975308641976,0,0,0.08641975308641976,86.41975308641976,0)" xlink:href="#G"/><use transform="matrix(0.08641975308641976,0,0,0.08641975308641976,93.24691358024693,0)" xlink:href="#H"/></g><path fill="#333" d="M240 0l2-218c-23 76-54 145-80 218h-23L58-218 59 0H30v-248h44l77 211c21-75 51-140 76-211h43V0h-30" id="I"/><path fill="#333" d="M100-194c62-1 85 37 85 99 1 63-27 99-86 99S16-35 15-95c0-66 28-99 85-99zM99-20c44 1 53-31 53-75 0-43-8-75-51-75s-53 32-53 75 10 74 51 75" id="J"/><path fill="#333" d="M117-194c89-4 53 116 60 194h-32v-121c0-31-8-49-39-48C34-167 62-67 57 0H25l-1-190h30c1 10-1 24 2 32 11-22 29-35 61-36" id="K"/><g id="b"><use transform="matrix(0.08641975308641976,0,0,0.08641975308641976,0,0)" xlink:href="#I"/><use transform="matrix(0.08641975308641976,0,0,0.08641975308641976,25.83950617283951,0)" xlink:href="#J"/><use transform="matrix(0.08641975308641976,0,0,0.08641975308641976,43.12345679012346,0)" xlink:href="#K"/></g><path fill="#333" d="M212-179c-10-28-35-45-73-45-59 0-87 40-87 99 0 60 29 101 89 101 43 0 62-24 78-52l27 14C228-24 195 4 139 4 59 4 22-46 18-125c-6-104 99-153 187-111 19 9 31 26 39 46" id="L"/><path fill="#333" d="M137 0h-34L2-248h35l83 218 83-218h36" id="M"/><g id="c"><use transform="matrix(0.08641975308641976,0,0,0.08641975308641976,0,0)" xlink:href="#L"/><use transform="matrix(0.08641975308641976,0,0,0.08641975308641976,22.38271604938272,0)" xlink:href="#M"/></g><path fill="#333" d="M135-143c-3-34-86-38-87 0 15 53 115 12 119 90S17 21 10-45l28-5c4 36 97 45 98 0-10-56-113-15-118-90-4-57 82-63 122-42 12 7 21 19 24 35" id="N"/><g id="d"><use transform="matrix(0.08641975308641976,0,0,0.08641975308641976,0,0)" xlink:href="#I"/><use transform="matrix(0.08641975308641976,0,0,0.08641975308641976,25.83950617283951,0)" xlink:href="#F"/><use transform="matrix(0.08641975308641976,0,0,0.08641975308641976,43.12345679012346,0)" xlink:href="#N"/></g><path fill="#333" d="M59-47c-2 24 18 29 38 22v24C64 9 27 4 27-40v-127H5v-23h24l9-43h21v43h35v23H59v120" id="O"/><path fill="#333" d="M114-163C36-179 61-72 57 0H25l-1-190h30c1 12-1 29 2 39 6-27 23-49 58-41v29" id="P"/><path fill="#333" d="M141-36C126-15 110 5 73 4 37 3 15-17 15-53c-1-64 63-63 125-63 3-35-9-54-41-54-24 1-41 7-42 31l-33-3c5-37 33-52 76-52 45 0 72 20 72 64v82c-1 20 7 32 28 27v20c-31 9-61-2-59-35zM48-53c0 20 12 33 32 33 41-3 63-29 60-74-43 2-92-5-92 41" id="Q"/><path fill="#333" d="M108 0H70L1-190h34L89-25l56-165h34" id="R"/><path fill="#333" d="M141 0L90-78 38 0H4l68-98-65-92h35l48 74 47-74h35l-64 92 68 98h-35" id="S"/><g id="e"><use transform="matrix(0.08641975308641976,0,0,0.08641975308641976,0,0)" xlink:href="#O"/><use transform="matrix(0.08641975308641976,0,0,0.08641975308641976,8.641975308641976,0)" xlink:href="#P"/><use transform="matrix(0.08641975308641976,0,0,0.08641975308641976,18.925925925925927,0)" xlink:href="#Q"/><use transform="matrix(0.08641975308641976,0,0,0.08641975308641976,36.20987654320988,0)" xlink:href="#R"/><use transform="matrix(0.08641975308641976,0,0,0.08641975308641976,51.76543209876544,0)" xlink:href="#Q"/><use transform="matrix(0.08641975308641976,0,0,0.08641975308641976,69.0493827160494,0)" xlink:href="#E"/><use transform="matrix(0.08641975308641976,0,0,0.08641975308641976,86.33333333333334,0)" xlink:href="#S"/></g><use transform="matrix(0.08641975308641976,0,0,0.08641975308641976,0,0)" xlink:href="#C" id="f"/><path fill="#333" d="M115-194c55 1 70 41 70 98S169 2 115 4C84 4 66-9 55-30l1 105H24l-1-265h31l2 30c10-21 28-34 59-34zm-8 174c40 0 45-34 45-75s-6-73-45-74c-42 0-51 32-51 76 0 43 10 73 51 73" id="T"/><g id="g"><use transform="matrix(0.08641975308641976,0,0,0.08641975308641976,0,0)" xlink:href="#T"/><use transform="matrix(0.08641975308641976,0,0,0.08641975308641976,17.283950617283953,0)" xlink:href="#P"/><use transform="matrix(0.08641975308641976,0,0,0.08641975308641976,27.567901234567906,0)" xlink:href="#J"/><use transform="matrix(0.08641975308641976,0,0,0.08641975308641976,44.85185185185187,0)" xlink:href="#T"/><use transform="matrix(0.08641975308641976,0,0,0.08641975308641976,62.13580246913581,0)" xlink:href="#J"/><use transform="matrix(0.08641975308641976,0,0,0.08641975308641976,79.41975308641976,0)" xlink:href="#N"/></g><path fill="#333" d="M85-194c31 0 48 13 60 33l-1-100h32l1 261h-30c-2-10 0-23-3-31C134-8 116 4 85 4 32 4 16-35 15-94c0-66 23-100 70-100zm9 24c-40 0-46 34-46 75 0 40 6 74 45 74 42 0 51-32 51-76 0-42-9-74-50-73" id="U"/><g id="h"><use transform="matrix(0.08641975308641976,0,0,0.08641975308641976,0,0)" xlink:href="#U"/><use transform="matrix(0.08641975308641976,0,0,0.08641975308641976,17.283950617283953,0)" xlink:href="#F"/></g><path fill="#333" d="M210-169c-67 3-38 105-44 169h-31v-121c0-29-5-50-35-48C34-165 62-65 56 0H25l-1-190h30c1 10-1 24 2 32 10-44 99-50 107 0 11-21 27-35 58-36 85-2 47 119 55 194h-31v-121c0-29-5-49-35-48" id="V"/><g id="i"><use transform="matrix(0.08641975308641976,0,0,0.08641975308641976,0,0)" xlink:href="#V"/><use transform="matrix(0.08641975308641976,0,0,0.08641975308641976,25.83950617283951,0)" xlink:href="#J"/><use transform="matrix(0.08641975308641976,0,0,0.08641975308641976,43.12345679012346,0)" xlink:href="#G"/></g><g id="j"><use transform="matrix(0.08641975308641976,0,0,0.08641975308641976,0,0)" xlink:href="#L"/><use transform="matrix(0.08641975308641976,0,0,0.08641975308641976,22.38271604938272,0)" xlink:href="#J"/><use transform="matrix(0.08641975308641976,0,0,0.08641975308641976,39.66666666666667,0)" xlink:href="#K"/><use transform="matrix(0.08641975308641976,0,0,0.08641975308641976,56.95061728395062,0)" xlink:href="#O"/><use transform="matrix(0.08641975308641976,0,0,0.08641975308641976,65.5925925925926,0)" xlink:href="#Q"/><use transform="matrix(0.08641975308641976,0,0,0.08641975308641976,82.87654320987654,0)" xlink:href="#D"/><use transform="matrix(0.08641975308641976,0,0,0.08641975308641976,98.43209876543212,0)" xlink:href="#O"/></g><path fill="#333" d="M127-220V0H93v-220H8v-28h204v28h-85" id="W"/><path fill="#333" d="M30-248c87 1 191-15 191 75 0 78-77 80-158 76V0H30v-248zm33 125c57 0 124 11 124-50 0-59-68-47-124-48v98" id="X"/><g id="k"><use transform="matrix(0.08641975308641976,0,0,0.08641975308641976,0,0)" xlink:href="#W"/><use transform="matrix(0.08641975308641976,0,0,0.08641975308641976,18.925925925925927,0)" xlink:href="#X"/></g><path fill="#333" d="M30 0v-248h33v221h125V0H30" id="Y"/><path fill="#333" d="M115-194c53 0 69 39 70 98 0 66-23 100-70 100C84 3 66-7 56-30L54 0H23l1-261h32v101c10-23 28-34 59-34zm-8 174c40 0 45-34 45-75 0-40-5-75-45-74-42 0-51 32-51 76 0 43 10 73 51 73" id="Z"/><path fill="#333" d="M179-190L93 31C79 59 56 82 12 73V49c39 6 53-20 64-50L1-190h34L92-34l54-156h33" id="aa"/><path fill="#333" d="M106-169C34-169 62-67 57 0H25v-261h32l-1 103c12-21 28-36 61-36 89 0 53 116 60 194h-32v-121c2-32-8-49-39-48" id="ab"/><g id="l"><use transform="matrix(0.08641975308641976,0,0,0.08641975308641976,0,0)" xlink:href="#Y"/><use transform="matrix(0.08641975308641976,0,0,0.08641975308641976,17.283950617283953,0)" xlink:href="#Q"/><use transform="matrix(0.08641975308641976,0,0,0.08641975308641976,34.567901234567906,0)" xlink:href="#Z"/><use transform="matrix(0.08641975308641976,0,0,0.08641975308641976,51.851851851851855,0)" xlink:href="#aa"/><use transform="matrix(0.08641975308641976,0,0,0.08641975308641976,67.40740740740742,0)" xlink:href="#P"/><use transform="matrix(0.08641975308641976,0,0,0.08641975308641976,77.69135802469137,0)" xlink:href="#G"/><use transform="matrix(0.08641975308641976,0,0,0.08641975308641976,84.51851851851853,0)" xlink:href="#K"/><use transform="matrix(0.08641975308641976,0,0,0.08641975308641976,101.80246913580248,0)" xlink:href="#O"/><use transform="matrix(0.08641975308641976,0,0,0.08641975308641976,110.44444444444446,0)" xlink:href="#ab"/><use transform="matrix(0.08641975308641976,0,0,0.08641975308641976,127.7283950617284,0)" xlink:href="#F"/></g><path fill="#333" d="M87 75C49 33 22-17 22-94c0-76 28-126 65-167h31c-38 41-64 92-64 168S80 34 118 75H87" id="ac"/><path fill="#333" d="M197 0v-115H63V0H30v-248h33v105h134v-105h34V0h-34" id="ad"/><path fill="#333" d="M33-261c38 41 65 92 65 168S71 34 33 75H2C39 34 66-17 66-93S39-220 2-261h31" id="ae"/><g id="m"><use transform="matrix(0.08641975308641976,0,0,0.08641975308641976,0,0)" xlink:href="#ac"/><use transform="matrix(0.08641975308641976,0,0,0.08641975308641976,10.283950617283951,0)" xlink:href="#ad"/><use transform="matrix(0.08641975308641976,0,0,0.08641975308641976,32.66666666666667,0)" xlink:href="#W"/><use transform="matrix(0.08641975308641976,0,0,0.08641975308641976,51.592592592592595,0)" xlink:href="#I"/><use transform="matrix(0.08641975308641976,0,0,0.08641975308641976,77.4320987654321,0)" xlink:href="#Y"/><use transform="matrix(0.08641975308641976,0,0,0.08641975308641976,94.71604938271606,0)" xlink:href="#ae"/></g><path fill="#333" d="M63-220v92h138v28H63V0H30v-248h175v28H63" id="af"/><g id="n"><use transform="matrix(0.08641975308641976,0,0,0.08641975308641976,0,0)" xlink:href="#af"/><use transform="matrix(0.08641975308641976,0,0,0.08641975308641976,18.925925925925927,0)" xlink:href="#J"/><use transform="matrix(0.08641975308641976,0,0,0.08641975308641976,36.20987654320988,0)" xlink:href="#P"/><use transform="matrix(0.08641975308641976,0,0,0.08641975308641976,46.49382716049383,0)" xlink:href="#V"/><use transform="matrix(0.08641975308641976,0,0,0.08641975308641976,72.33333333333334,0)" xlink:href="#E"/><use transform="matrix(0.08641975308641976,0,0,0.08641975308641976,89.61728395061729,0)" xlink:href="#H"/><use transform="matrix(0.08641975308641976,0,0,0.08641975308641976,96.44444444444446,0)" xlink:href="#Q"/><use transform="matrix(0.08641975308641976,0,0,0.08641975308641976,113.7283950617284,0)" xlink:href="#G"/><use transform="matrix(0.08641975308641976,0,0,0.08641975308641976,120.55555555555557,0)" xlink:href="#P"/><use transform="matrix(0.08641975308641976,0,0,0.08641975308641976,130.83950617283952,0)" xlink:href="#F"/></g><path fill="#333" d="M143 0L79-87 56-68V0H24v-261h32v163l83-92h37l-77 82L181 0h-38" id="ag"/><path fill="#333" d="M177-190C167-65 218 103 67 71c-23-6-38-20-44-43l32-5c15 47 100 32 89-28v-30C133-14 115 1 83 1 29 1 15-40 15-95c0-56 16-97 71-98 29-1 48 16 59 35 1-10 0-23 2-32h30zM94-22c36 0 50-32 50-73 0-42-14-75-50-75-39 0-46 34-46 75s6 73 46 73" id="ah"/><g id="o"><use transform="matrix(0.08641975308641976,0,0,0.08641975308641976,0,0)" xlink:href="#P"/><use transform="matrix(0.08641975308641976,0,0,0.08641975308641976,10.283950617283951,0)" xlink:href="#F"/><use transform="matrix(0.08641975308641976,0,0,0.08641975308641976,27.567901234567906,0)" xlink:href="#H"/><use transform="matrix(0.08641975308641976,0,0,0.08641975308641976,34.39506172839506,0)" xlink:href="#J"/><use transform="matrix(0.08641975308641976,0,0,0.08641975308641976,51.679012345679006,0)" xlink:href="#J"/><use transform="matrix(0.08641975308641976,0,0,0.08641975308641976,68.96296296296296,0)" xlink:href="#ag"/><use transform="matrix(0.08641975308641976,0,0,0.08641975308641976,84.51851851851852,0)" xlink:href="#G"/><use transform="matrix(0.08641975308641976,0,0,0.08641975308641976,91.34567901234568,0)" xlink:href="#K"/><use transform="matrix(0.08641975308641976,0,0,0.08641975308641976,108.62962962962965,0)" xlink:href="#ah"/></g><g id="p"><use transform="matrix(0.08641975308641976,0,0,0.08641975308641976,0,0)" xlink:href="#W"/><use transform="matrix(0.08641975308641976,0,0,0.08641975308641976,15.469135802469134,0)" xlink:href="#Q"/><use transform="matrix(0.08641975308641976,0,0,0.08641975308641976,32.75308641975309,0)" xlink:href="#Z"/><use transform="matrix(0.08641975308641976,0,0,0.08641975308641976,50.037037037037045,0)" xlink:href="#H"/><use transform="matrix(0.08641975308641976,0,0,0.08641975308641976,56.8641975308642,0)" xlink:href="#F"/><use transform="matrix(0.08641975308641976,0,0,0.08641975308641976,74.14814814814815,0)" xlink:href="#Q"/><use transform="matrix(0.08641975308641976,0,0,0.08641975308641976,91.4320987654321,0)" xlink:href="#E"/></g><g id="q"><use transform="matrix(0.08641975308641976,0,0,0.08641975308641976,0,0)" xlink:href="#Q"/><use transform="matrix(0.08641975308641976,0,0,0.08641975308641976,17.283950617283953,0)" xlink:href="#R"/><use transform="matrix(0.08641975308641976,0,0,0.08641975308641976,32.839506172839506,0)" xlink:href="#F"/><use transform="matrix(0.08641975308641976,0,0,0.08641975308641976,50.123456790123456,0)" xlink:href="#D"/></g><g id="r"><use transform="matrix(0.08641975308641976,0,0,0.08641975308641976,0,0)" xlink:href="#H"/><use transform="matrix(0.08641975308641976,0,0,0.08641975308641976,6.8271604938271615,0)" xlink:href="#F"/><use transform="matrix(0.08641975308641976,0,0,0.08641975308641976,24.111111111111114,0)" xlink:href="#N"/></g><g id="s"><use transform="matrix(0.08641975308641976,0,0,0.08641975308641976,0,0)" xlink:href="#N"/><use transform="matrix(0.08641975308641976,0,0,0.08641975308641976,15.555555555555557,0)" xlink:href="#O"/><use transform="matrix(0.08641975308641976,0,0,0.08641975308641976,24.19753086419753,0)" xlink:href="#aa"/><use transform="matrix(0.08641975308641976,0,0,0.08641975308641976,39.75308641975309,0)" xlink:href="#H"/><use transform="matrix(0.08641975308641976,0,0,0.08641975308641976,46.580246913580254,0)" xlink:href="#F"/><use transform="matrix(0.08641975308641976,0,0,0.08641975308641976,63.8641975308642,0)" xlink:href="#N"/></g><path fill="#333" d="M185-189c-5-48-123-54-124 2 14 75 158 14 163 119 3 78-121 87-175 55-17-10-28-26-33-46l33-7c5 56 141 63 141-1 0-78-155-14-162-118-5-82 145-84 179-34 5 7 8 16 11 25" id="ai"/><g id="t"><use transform="matrix(0.08641975308641976,0,0,0.08641975308641976,0,0)" xlink:href="#L"/><use transform="matrix(0.08641975308641976,0,0,0.08641975308641976,22.38271604938272,0)" xlink:href="#ai"/><use transform="matrix(0.08641975308641976,0,0,0.08641975308641976,43.12345679012346,0)" xlink:href="#ai"/></g><g id="u"><use transform="matrix(0.08641975308641976,0,0,0.08641975308641976,0,0)" xlink:href="#ai"/><use transform="matrix(0.08641975308641976,0,0,0.08641975308641976,20.740740740740744,0)" xlink:href="#G"/><use transform="matrix(0.08641975308641976,0,0,0.08641975308641976,27.567901234567906,0)" xlink:href="#O"/><use transform="matrix(0.08641975308641976,0,0,0.08641975308641976,36.20987654320988,0)" xlink:href="#F"/></g><g id="v"><use transform="matrix(0.08641975308641976,0,0,0.08641975308641976,0,0)" xlink:href="#O"/><use transform="matrix(0.08641975308641976,0,0,0.08641975308641976,8.641975308641976,0)" xlink:href="#E"/><use transform="matrix(0.08641975308641976,0,0,0.08641975308641976,25.925925925925927,0)" xlink:href="#O"/><use transform="matrix(0.08641975308641976,0,0,0.08641975308641976,34.567901234567906,0)" xlink:href="#J"/><use transform="matrix(0.08641975308641976,0,0,0.08641975308641976,51.851851851851855,0)" xlink:href="#P"/><use transform="matrix(0.08641975308641976,0,0,0.08641975308641976,62.13580246913581,0)" xlink:href="#G"/><use transform="matrix(0.08641975308641976,0,0,0.08641975308641976,68.96296296296298,0)" xlink:href="#F"/><use transform="matrix(0.08641975308641976,0,0,0.08641975308641976,86.24691358024693,0)" xlink:href="#H"/></g><path fill="#333" d="M33 0v-38h34V0H33" id="aj"/><g id="w"><use transform="matrix(0.08641975308641976,0,0,0.08641975308641976,0,0)" xlink:href="#D"/><use transform="matrix(0.08641975308641976,0,0,0.08641975308641976,15.555555555555557,0)" xlink:href="#N"/><use transform="matrix(0.08641975308641976,0,0,0.08641975308641976,31.111111111111114,0)" xlink:href="#N"/><use transform="matrix(0.08641975308641976,0,0,0.08641975308641976,46.66666666666667,0)" xlink:href="#aj"/><use transform="matrix(0.08641975308641976,0,0,0.08641975308641976,55.308641975308646,0)" xlink:href="#V"/><use transform="matrix(0.08641975308641976,0,0,0.08641975308641976,81.14814814814815,0)" xlink:href="#Q"/><use transform="matrix(0.08641975308641976,0,0,0.08641975308641976,98.43209876543212,0)" xlink:href="#S"/><use transform="matrix(0.08641975308641976,0,0,0.08641975308641976,113.98765432098767,0)" xlink:href="#U"/><use transform="matrix(0.08641975308641976,0,0,0.08641975308641976,131.27160493827162,0)" xlink:href="#F"/><use transform="matrix(0.08641975308641976,0,0,0.08641975308641976,148.55555555555557,0)" xlink:href="#N"/><use transform="matrix(0.08641975308641976,0,0,0.08641975308641976,164.11111111111114,0)" xlink:href="#G"/><use transform="matrix(0.08641975308641976,0,0,0.08641975308641976,170.9382716049383,0)" xlink:href="#ah"/><use transform="matrix(0.08641975308641976,0,0,0.08641975308641976,188.22222222222223,0)" xlink:href="#K"/><use transform="matrix(0.08641975308641976,0,0,0.08641975308641976,205.5061728395062,0)" xlink:href="#aj"/><use transform="matrix(0.08641975308641976,0,0,0.08641975308641976,214.14814814814818,0)" xlink:href="#D"/><use transform="matrix(0.08641975308641976,0,0,0.08641975308641976,229.70370370370378,0)" xlink:href="#J"/><use transform="matrix(0.08641975308641976,0,0,0.08641975308641976,246.98765432098773,0)" xlink:href="#V"/></g><g id="x"><use transform="matrix(0.08641975308641976,0,0,0.08641975308641976,0,0)" xlink:href="#af"/><use transform="matrix(0.08641975308641976,0,0,0.08641975308641976,18.925925925925927,0)" xlink:href="#H"/><use transform="matrix(0.08641975308641976,0,0,0.08641975308641976,25.75308641975309,0)" xlink:href="#F"/><use transform="matrix(0.08641975308641976,0,0,0.08641975308641976,43.03703703703704,0)" xlink:href="#S"/><use transform="matrix(0.08641975308641976,0,0,0.08641975308641976,58.592592592592595,0)" xlink:href="#Z"/><use transform="matrix(0.08641975308641976,0,0,0.08641975308641976,75.87654320987654,0)" xlink:href="#J"/><use transform="matrix(0.08641975308641976,0,0,0.08641975308641976,93.16049382716048,0)" xlink:href="#S"/></g><path fill="#333" d="M143 4C61 4 22-44 18-125c-5-107 100-154 193-111 17 8 29 25 37 43l-32 9c-13-25-37-40-76-40-61 0-88 39-88 99 0 61 29 100 91 101 35 0 62-11 79-27v-45h-74v-28h105v86C228-13 192 4 143 4" id="ak"/><g id="y"><use transform="matrix(0.08641975308641976,0,0,0.08641975308641976,0,0)" xlink:href="#ak"/><use transform="matrix(0.08641975308641976,0,0,0.08641975308641976,24.19753086419753,0)" xlink:href="#P"/><use transform="matrix(0.08641975308641976,0,0,0.08641975308641976,34.48148148148148,0)" xlink:href="#G"/><use transform="matrix(0.08641975308641976,0,0,0.08641975308641976,41.308641975308646,0)" xlink:href="#U"/></g><path fill="#333" d="M30-248c118-7 216 8 213 122C240-48 200 0 122 0H30v-248zM63-27c89 8 146-16 146-99s-60-101-146-95v194" id="al"/><g id="z"><use transform="matrix(0.08641975308641976,0,0,0.08641975308641976,0,0)" xlink:href="#al"/><use transform="matrix(0.08641975308641976,0,0,0.08641975308641976,22.38271604938272,0)" xlink:href="#G"/><use transform="matrix(0.08641975308641976,0,0,0.08641975308641976,29.20987654320988,0)" xlink:href="#Q"/><use transform="matrix(0.08641975308641976,0,0,0.08641975308641976,46.49382716049383,0)" xlink:href="#ah"/><use transform="matrix(0.08641975308641976,0,0,0.08641975308641976,63.777777777777786,0)" xlink:href="#P"/><use transform="matrix(0.08641975308641976,0,0,0.08641975308641976,74.06172839506173,0)" xlink:href="#Q"/><use transform="matrix(0.08641975308641976,0,0,0.08641975308641976,91.34567901234568,0)" xlink:href="#V"/><use transform="matrix(0.08641975308641976,0,0,0.08641975308641976,117.18518518518519,0)" xlink:href="#V"/><use transform="matrix(0.08641975308641976,0,0,0.08641975308641976,143.0246913580247,0)" xlink:href="#F"/></g><g id="A"><use transform="matrix(0.08641975308641976,0,0,0.08641975308641976,0,0)" xlink:href="#U"/><use transform="matrix(0.08641975308641976,0,0,0.08641975308641976,17.283950617283953,0)" xlink:href="#E"/></g><g id="B"><use transform="matrix(0.08641975308641976,0,0,0.08641975308641976,0,0)" xlink:href="#N"/><use transform="matrix(0.08641975308641976,0,0,0.08641975308641976,15.555555555555557,0)" xlink:href="#G"/><use transform="matrix(0.08641975308641976,0,0,0.08641975308641976,22.38271604938272,0)" xlink:href="#O"/><use transform="matrix(0.08641975308641976,0,0,0.08641975308641976,31.024691358024693,0)" xlink:href="#F"/></g></defs></g></svg>