<svg xmlns="http://www.w3.org/2000/svg" xmlns:xlink="http://www.w3.org/1999/xlink" xmlns:lucid="lucid" width="2668.76" height="2374.17"><g transform="translate(-178.7741951733733 -214.37611541605958)" lucid:page-tab-id="0_0"><path d="M1058.9 240.38a6 6 0 0 1 6-6H1463a6 6 0 0 1 6 6v178.7a6 6 0 0 1-6 6H1064.9a6 6 0 0 1-6-6z" stroke="#5e5e5e" stroke-width="3" fill="#ff9090"/><use xlink:href="#a" transform="matrix(1,0,0,1,1070.9114647500273,246.37611541605958) translate(143.46296296296296 87.51388888888889)"/><path d="M198.77 591.1a6 6 0 0 1 6-6h398.07a6 6 0 0 1 6 6v178.7a6 6 0 0 1-6 6H204.77a6 6 0 0 1-6-6z" stroke="#5e5e5e" stroke-width="3" fill="#a7a6ff"/><use xlink:href="#b" transform="matrix(1,0,0,1,210.7741951733733,597.089911169712) translate(137.41358024691357 87.51388888888889)"/><use xlink:href="#c" transform="matrix(1,0,0,1,210.7741951733733,597.089911169712) translate(206.46296296296296 87.51388888888889)"/><path d="M768.84 591.1a6 6 0 0 1 6-6h398.07a6 6 0 0 1 6 6v178.7a6 6 0 0 1-6 6H774.85a6 6 0 0 1-6-6z" stroke="#5e5e5e" stroke-width="3" fill="#a7a6ff"/><use xlink:href="#d" transform="matrix(1,0,0,1,780.8428299617003,597.089911169712) translate(108.89506172839505 87.51388888888889)"/><use xlink:href="#e" transform="matrix(1,0,0,1,780.8428299617003,597.089911169712) translate(176.21604938271605 87.51388888888889)"/><path d="M1338.9 591.1a6 6 0 0 1 6-6H1743a6 6 0 0 1 6 6v178.7a6 6 0 0 1-6 6H1344.9a6 6 0 0 1-6-6z" stroke="#5e5e5e" stroke-width="3" fill="#a7a6ff"/><use xlink:href="#f" transform="matrix(1,0,0,1,1350.9114647500273,597.089911169712) translate(81.28395061728395 87.51388888888889)"/><use xlink:href="#g" transform="matrix(1,0,0,1,1350.9114647500273,597.089911169712) translate(108.93827160493828 87.51388888888889)"/><use xlink:href="#h" transform="matrix(1,0,0,1,1350.9114647500273,597.089911169712) translate(212.55555555555557 87.51388888888889)"/><use xlink:href="#i" transform="matrix(1,0,0,1,1350.9114647500273,597.089911169712) translate(255.76543209876544 87.51388888888889)"/><path d="M1908.98 598.5a6 6 0 0 1 6-6h398.07a6 6 0 0 1 6 6v178.7a6 6 0 0 1-6 6h-398.07a6 6 0 0 1-6-6z" stroke="#5e5e5e" stroke-width="3" fill="#a7a6ff"/><use xlink:href="#j" transform="matrix(1,0,0,1,1920.9800995383541,604.4953324677939) translate(139.96296296296296 87.51388888888889)"/><path d="M1264.95 507.94H2108a6 6 0 0 1 6 6v58.6M1264.97 507.94h-1.02" stroke="#5e5e5e" stroke-width="2" fill="none"/><path d="M2114 587.8l-4.62-14.27h9.27z" stroke="#5e5e5e" stroke-width="2" fill="#5e5e5e"/><path d="M1262.95 507.94H979.88a6 6 0 0 0-6 6v51.18M1262.92 507.94h1.03" stroke="#5e5e5e" stroke-width="2" fill="none"/><path d="M973.88 580.4l-4.64-14.28h9.27z" stroke="#5e5e5e" stroke-width="2" fill="#5e5e5e"/><path d="M1262.95 507.94H409.8a6 6 0 0 0-6 6v51.18M1262.92 507.94h1.03" stroke="#5e5e5e" stroke-width="2" fill="none"/><path d="M403.8 580.4l-4.63-14.28h9.27z" stroke="#5e5e5e" stroke-width="2" fill="#5e5e5e"/><path d="M1054.46 941.8a6 6 0 0 1 6-6h398.07a6 6 0 0 1 6 6v178.72a6 6 0 0 1-6 6h-398.07a6 6 0 0 1-6-6z" stroke="#5e5e5e" stroke-width="3" fill="#b5d6ff"/><use xlink:href="#k" transform="matrix(1,0,0,1,1066.4590066928815,947.8037069233644) translate(40.32098765432099 87.51388888888889)"/><use xlink:href="#l" transform="matrix(1,0,0,1,1066.4590066928815,947.8037069233644) translate(88.0246913580247 87.51388888888889)"/><use xlink:href="#m" transform="matrix(1,0,0,1,1066.4590066928815,947.8037069233644) translate(241.679012345679 87.51388888888889)"/><path d="M973.88 778.27v246.9a6 6 0 0 0 6 6h54.6" stroke="#5e5e5e" stroke-width="2" fill="none"/><path d="M974.88 778.3h-2v-1.03h2z" stroke="#5e5e5e" stroke-width=".05" fill="#5e5e5e"/><path d="M1049.76 1031.16l-14.27 4.64v-9.27z" stroke="#5e5e5e" stroke-width="2" fill="#5e5e5e"/><path d="M1263.95 427.55v61.9" stroke="#5e5e5e" stroke-width="2" fill="none"/><path d="M1264.95 427.58h-2v-1.03h2z" stroke="#5e5e5e" stroke-width=".05" fill="#5e5e5e"/><path d="M1263.95 504.7l-4.64-14.26h9.28z" stroke="#5e5e5e" stroke-width="2" fill="#5e5e5e"/><path d="M1579.68 508.94v56.18M1579.68 508.96v-1.02" stroke="#5e5e5e" stroke-width="2" fill="none"/><path d="M1579.68 580.38l-4.63-14.26h9.27z" stroke="#5e5e5e" stroke-width="2" fill="#5e5e5e"/><path d="M1054.46 1189.45a6 6 0 0 1 6-6h398.07a6 6 0 0 1 6 6v178.72a6 6 0 0 1-6 6h-398.07a6 6 0 0 1-6-6z" stroke="#5e5e5e" stroke-width="3" fill="#b5d6ff"/><use xlink:href="#k" transform="matrix(1,0,0,1,1066.4590066928815,1195.451368338961) translate(28.308641975308632 87.51388888888889)"/><use xlink:href="#n" transform="matrix(1,0,0,1,1066.4590066928815,1195.451368338961) translate(76.01234567901234 87.51388888888889)"/><use xlink:href="#o" transform="matrix(1,0,0,1,1066.4590066928815,1195.451368338961) translate(232.7777777777778 87.51388888888889)"/><path d="M973.88 1025.9v246.9a6 6 0 0 0 6 6h54.6M973.88 1025.94v-1.03" stroke="#5e5e5e" stroke-width="2" fill="none"/><path d="M1049.76 1278.8l-14.27 4.64v-9.27z" stroke="#5e5e5e" stroke-width="2" fill="#5e5e5e"/><path d="M1054.46 1424.72a6 6 0 0 1 6-6h398.07a6 6 0 0 1 6 6v178.72a6 6 0 0 1-6 6h-398.07a6 6 0 0 1-6-6z" stroke="#5e5e5e" stroke-width="3" fill="#b5d6ff"/><use xlink:href="#k" transform="matrix(1,0,0,1,1066.4590066928815,1430.7235172883127) translate(115.29012345679013 71.85763888888889)"/><use xlink:href="#p" transform="matrix(1,0,0,1,1066.4590066928815,1430.7235172883127) translate(162.99382716049382 71.85763888888889)"/><use xlink:href="#q" transform="matrix(1,0,0,1,1066.4590066928815,1430.7235172883127) translate(56.22222222222223 109.19097222222223)"/><use xlink:href="#r" transform="matrix(1,0,0,1,1066.4590066928815,1430.7235172883127) translate(130.54320987654322 109.19097222222223)"/><use xlink:href="#s" transform="matrix(1,0,0,1,1066.4590066928815,1430.7235172883127) translate(178.85185185185185 109.19097222222223)"/><use xlink:href="#t" transform="matrix(1,0,0,1,1066.4590066928815,1430.7235172883127) translate(266.9135802469136 109.19097222222223)"/><path d="M973.88 1221.2v286.88a6 6 0 0 0 6 6h54.6M973.88 1221.2v-1" stroke="#5e5e5e" stroke-width="2" fill="none"/><path d="M1049.76 1514.08l-14.27 4.64v-9.27z" stroke="#5e5e5e" stroke-width="2" fill="#5e5e5e"/><path d="M1054.46 1664.15a6 6 0 0 1 6-6h398.07a6 6 0 0 1 6 6v178.72a6 6 0 0 1-6 6h-398.07a6 6 0 0 1-6-6z" stroke="#5e5e5e" stroke-width="3" fill="#b5d6ff"/><use xlink:href="#u" transform="matrix(1,0,0,1,1066.4590066928815,1670.1517567756316) translate(115.89506172839505 71.85763888888889)"/><use xlink:href="#v" transform="matrix(1,0,0,1,1066.4590066928815,1670.1517567756316) translate(178.03086419753086 71.85763888888889)"/><use xlink:href="#w" transform="matrix(1,0,0,1,1066.4590066928815,1670.1517567756316) translate(57.0864197530864 109.19097222222223)"/><path d="M973.88 1500.6v246.9a6 6 0 0 0 6 6h54.6M973.88 1500.64v-1.03" stroke="#5e5e5e" stroke-width="2" fill="none"/><path d="M1049.76 1753.5l-14.27 4.64v-9.27z" stroke="#5e5e5e" stroke-width="2" fill="#5e5e5e"/><path d="M1054.46 1911.8a6 6 0 0 1 6-6h398.07a6 6 0 0 1 6 6v178.7a6 6 0 0 1-6 6h-398.07a6 6 0 0 1-6-6z" stroke="#5e5e5e" stroke-width="3" fill="#b5d6ff"/><use xlink:href="#k" transform="matrix(1,0,0,1,1066.4590066928815,1917.7994181912281) translate(115.29012345679013 87.51388888888889)"/><use xlink:href="#x" transform="matrix(1,0,0,1,1066.4590066928815,1917.7994181912281) translate(162.99382716049382 87.51388888888889)"/><path d="M973.88 1748.26v246.9a6 6 0 0 0 6 6h54.6M973.88 1748.3v-1.04" stroke="#5e5e5e" stroke-width="2" fill="none"/><path d="M1049.76 2001.16l-14.27 4.63v-9.28z" stroke="#5e5e5e" stroke-width="2" fill="#5e5e5e"/><path d="M1054.46 2147.07a6 6 0 0 1 6-6h398.07a6 6 0 0 1 6 6v178.72a6 6 0 0 1-6 6h-398.07a6 6 0 0 1-6-6z" stroke="#5e5e5e" stroke-width="3" fill="#b5d6ff"/><use xlink:href="#k" transform="matrix(1,0,0,1,1066.4590066928815,2153.0715671405796) translate(140.35185185185185 87.51388888888889)"/><use xlink:href="#y" transform="matrix(1,0,0,1,1066.4590066928815,2153.0715671405796) translate(188.05555555555554 87.51388888888889)"/><path d="M973.88 1943.53v286.9a6 6 0 0 0 6 6h54.6M973.88 1943.56v-1.03" stroke="#5e5e5e" stroke-width="2" fill="none"/><path d="M1049.76 2236.43l-14.27 4.63v-9.27z" stroke="#5e5e5e" stroke-width="2" fill="#5e5e5e"/><path d="M1054.46 2383.84a6 6 0 0 1 6-6h398.07a6 6 0 0 1 6 6v178.7a6 6 0 0 1-6 6h-398.07a6 6 0 0 1-6-6z" stroke="#5e5e5e" stroke-width="3" fill="#b5d6ff"/><use xlink:href="#z" transform="matrix(1,0,0,1,1066.4590066928815,2389.8350362037913) translate(63.265432098765416 87.51388888888889)"/><use xlink:href="#A" transform="matrix(1,0,0,1,1066.4590066928815,2389.8350362037913) translate(232.21604938271605 87.51388888888889)"/><use xlink:href="#B" transform="matrix(1,0,0,1,1066.4590066928815,2389.8350362037913) translate(275.4259259259259 87.51388888888889)"/><path d="M973.88 2180.3v286.9a6 6 0 0 0 6 6h54.6M973.88 2180.32v-1.02" stroke="#5e5e5e" stroke-width="2" fill="none"/><path d="M1049.76 2473.2l-14.27 4.63v-9.27z" stroke="#5e5e5e" stroke-width="2" fill="#5e5e5e"/><path d="M1530.7 973.8a6 6 0 0 1 6-6h255.14a6 6 0 0 1 6 6v114.7a6 6 0 0 1-6 6H1536.7a6 6 0 0 1-6-6z" stroke="#5e5e5e" stroke-width="3" fill="#dbd3b6"/><use xlink:href="#C" transform="matrix(1,0,0,1,1537.021853213014,974.1468453574723) translate(36.55555555555556 64.34375)"/><path d="M1842.1 973.8a6 6 0 0 1 6-6h255.16a6 6 0 0 1 6 6v114.7a6 6 0 0 1-6 6H1848.1a6 6 0 0 1-6-6z" stroke="#5e5e5e" stroke-width="3" fill="#dbd3b6"/><use xlink:href="#D" transform="matrix(1,0,0,1,1848.4436622939472,974.1468453574723) translate(13.222222222222214 64.34375)"/><path d="M2555.37 1110a6 6 0 0 1 6-6h255.15a6 6 0 0 1 6 6v114.7a6 6 0 0 1-6 6h-255.15a6 6 0 0 1-6-6z" stroke="#5e5e5e" stroke-width="3" fill="#dbd3b6"/><use xlink:href="#E" transform="matrix(1,0,0,1,2561.700063737269,1110.3357774732842) translate(52.05555555555556 64.34375)"/><path d="M2555.37 953.72a6 6 0 0 1 6-6h255.15a6 6 0 0 1 6 6v114.7a6 6 0 0 1-6 6h-255.15a6 6 0 0 1-6-6z" stroke="#5e5e5e" stroke-width="3" fill="#dbd3b6"/><use xlink:href="#F" transform="matrix(1,0,0,1,2561.700063737269,954.0551157393506) translate(11.055555555555543 64.34375)"/><path d="M2153.53 967.7a6 6 0 0 1 6-6h255.16a6 6 0 0 1 6 6v114.7a6 6 0 0 1-6 6h-255.17a6 6 0 0 1-6-6z" stroke="#5e5e5e" stroke-width="3" fill="#dbd3b6"/><use xlink:href="#G" transform="matrix(1,0,0,1,2159.8654713748806,968.0359045795437) translate(-3.444444444444457 65.5)"/><path d="M2555.37 804.4a6 6 0 0 1 6-6h255.15a6 6 0 0 1 6 6v114.7a6 6 0 0 1-6 6h-255.15a6 6 0 0 1-6-6z" stroke="#5e5e5e" stroke-width="3" fill="#dbd3b6"/><use xlink:href="#H" transform="matrix(1,0,0,1,2561.700063737269,804.7482208084882) translate(-11.166666666666686 65.5)"/><path d="M2555.37 655.1a6 6 0 0 1 6-6h255.15a6 6 0 0 1 6 6v114.7a6 6 0 0 1-6 6h-255.15a6 6 0 0 1-6-6z" stroke="#5e5e5e" stroke-width="3" fill="#dbd3b6"/><use xlink:href="#I" transform="matrix(1,0,0,1,2561.700063737269,655.4413258776258) translate(-2.222222222222257 65.5)"/><path d="M2153.53 1120.3a6 6 0 0 1 6-6h255.16a6 6 0 0 1 6 6V1235a6 6 0 0 1-6 6h-255.17a6 6 0 0 1-6-6z" stroke="#5e5e5e" stroke-width="3" fill="#dbd3b6"/><use xlink:href="#J" transform="matrix(1,0,0,1,2159.8654713748806,1120.6304832814617) translate(18.77777777777777 64.34375)"/><path d="M2150.18 815.1a6 6 0 0 1 6-6h255.16a6 6 0 0 1 6 6v114.7a6 6 0 0 1-6 6h-255.16a6 6 0 0 1-6-6z" stroke="#5e5e5e" stroke-width="3" fill="#dbd3b6"/><use xlink:href="#K" transform="matrix(1,0,0,1,2156.516849771814,815.4413258776258) translate(44.33333333333333 64.34375)"/><path d="M1477.74 1034.72h32.98M1477.77 1034.72h-1.03" stroke="#5e5e5e" stroke-width="2" fill="none"/><path d="M1526 1034.72l-14.28 4.64v-9.27z" stroke="#5e5e5e" stroke-width="2" fill="#5e5e5e"/><path d="M1798.33 1033.33h23.8M1798.36 1033.33h-1.03" stroke="#5e5e5e" stroke-width="2" fill="none"/><path d="M1837.4 1033.33l-14.26 4.64v-9.27z" stroke="#5e5e5e" stroke-width="2" fill="#5e5e5e"/><path d="M2114.33 1030.67h19.24M2114.36 1030.67h-1.03" stroke="#5e5e5e" stroke-width="2" fill="none"/><path d="M2148.83 1030.67l-14.26 4.63v-9.27z" stroke="#5e5e5e" stroke-width="2" fill="#5e5e5e"/><path d="M2106.67 966.13v-77.47a6 6 0 0 1 6-6h17.55" stroke="#5e5e5e" stroke-width="2" fill="none"/><path d="M2107.67 967.74l-1-.6-1-.43v-.6h2z" stroke="#5e5e5e" stroke-width=".05" fill="#5e5e5e"/><path d="M2145.5 882.66l-14.28 4.64v-9.27z" stroke="#5e5e5e" stroke-width="2" fill="#5e5e5e"/><path d="M2109.33 1093v78.64a6 6 0 0 0 6 6h18.24M2109.33 1093.03V1092" stroke="#5e5e5e" stroke-width="2" fill="none"/><path d="M2148.83 1177.64l-14.26 4.64V1173z" stroke="#5e5e5e" stroke-width="2" fill="#5e5e5e"/><path d="M2419.8 872.46h60.55a6 6 0 0 0 6-6v-148a6 6 0 0 1 6-6h43.05" stroke="#5e5e5e" stroke-width="2" fill="none"/><path d="M2419.83 873.46h-1.03v-2h1.03z" stroke="#5e5e5e" stroke-width=".05" fill="#5e5e5e"/><path d="M2550.67 712.46l-14.27 4.63v-9.28z" stroke="#5e5e5e" stroke-width="2" fill="#5e5e5e"/><path d="M2483.67 873.33h51.74M2483.7 873.33h-1.03" stroke="#5e5e5e" stroke-width="2" fill="none"/><path d="M2550.67 873.33l-14.26 4.64v-9.27z" stroke="#5e5e5e" stroke-width="2" fill="#5e5e5e"/><path d="M2488 873v132.07a6 6 0 0 0 6 6h41.4M2488 873.03V872" stroke="#5e5e5e" stroke-width="2" fill="none"/><path d="M2550.67 1011.07l-14.27 4.63v-9.27z" stroke="#5e5e5e" stroke-width="2" fill="#5e5e5e"/><path d="M2489.33 1012.07v164.6a6 6 0 0 0 6 6h40.08M2489.33 1012.1v-1.03" stroke="#5e5e5e" stroke-width="2" fill="none"/><path d="M2550.68 1182.66l-14.27 4.64v-9.27z" stroke="#5e5e5e" stroke-width="2" fill="#5e5e5e"/><path d="M1519.74 1221.46a6 6 0 0 1 6-6h255.16a6 6 0 0 1 6 6v114.7a6 6 0 0 1-6 6h-255.16a6 6 0 0 1-6-6z" stroke="#5e5e5e" stroke-width="3" fill="#f7c5da"/><use xlink:href="#C" transform="matrix(1,0,0,1,1526.0751373194041,1221.7945067730689) translate(36.55555555555556 64.34375)"/><path d="M1826.1 1152.76a6 6 0 0 1 6-6h255.16a6 6 0 0 1 6 6v114.7a6 6 0 0 1-6 6H1832.1a6 6 0 0 1-6-6z" stroke="#5e5e5e" stroke-width="3" fill="#f7c5da"/><use xlink:href="#L" transform="matrix(1,0,0,1,1832.4436622939472,1153.0971813352103) translate(34.27777777777777 64.34375)"/><path d="M1826.1 1427.3a6 6 0 0 1 6-6h255.16a6 6 0 0 1 6 6V1542a6 6 0 0 1-6 6H1832.1a6 6 0 0 1-6-6z" stroke="#5e5e5e" stroke-width="3" fill="#f7c5da"/><use xlink:href="#M" transform="matrix(1,0,0,1,1832.4436622939472,1427.6250911499378) translate(-1.2222222222222285 65.5)"/><path d="M1826.1 1290.03a6 6 0 0 1 6-6h255.16a6 6 0 0 1 6 6v114.7a6 6 0 0 1-6 6H1832.1a6 6 0 0 1-6-6z" stroke="#5e5e5e" stroke-width="3" fill="#f7c5da"/><use xlink:href="#N" transform="matrix(1,0,0,1,1832.4436622939472,1290.361136242574) translate(32.27777777777777 64.34375)"/><path d="M1519.74 1392.17a6 6 0 0 1 6-6h255.16a6 6 0 0 1 6 6v114.7a6 6 0 0 1-6 6h-255.16a6 6 0 0 1-6-6z" stroke="#5e5e5e" stroke-width="3" fill="#f7c5da"/><use xlink:href="#O" transform="matrix(1,0,0,1,1526.0751373194041,1392.5000262529154) translate(11.111111111111086 64.34375)"/><path d="M1789.35 1269.33h11.15a6 6 0 0 0 6-6v-46.3" stroke="#5e5e5e" stroke-width="2" fill="none"/><path d="M1789.38 1270.33h-1.03v-2h1.03z" stroke="#5e5e5e" stroke-width=".05" fill="#5e5e5e"/><path d="M1821.4 1216.75l-14.16 4.9-.18-9.26z" stroke="#5e5e5e" stroke-width="2" fill="#5e5e5e"/><path d="M1807.5 1347.37h-1M1807.53 1347.37h-1.03" stroke="#5e5e5e" stroke-width="2" fill="none"/><path d="M1821.4 1347.37l-14.26 4.64v-9.26z" stroke="#5e5e5e" stroke-width="2" fill="#5e5e5e"/><path d="M1655.72 1344.62v21.58" stroke="#5e5e5e" stroke-width="2" fill="none"/><path d="M1656.72 1344.64h-2v-1.02h2z" stroke="#5e5e5e" stroke-width=".05" fill="#5e5e5e"/><path d="M1655.72 1381.47l-4.64-14.27h9.28z" stroke="#5e5e5e" stroke-width="2" fill="#5e5e5e"/><path d="M1789.35 1269.33h11.15a6 6 0 0 1 6 6v208.95" stroke="#5e5e5e" stroke-width="2" fill="none"/><path d="M1789.38 1270.33h-1.03v-2h1.03z" stroke="#5e5e5e" stroke-width=".05" fill="#5e5e5e"/><path d="M1821.4 1484.58l-14.34 4.35.18-9.27z" stroke="#5e5e5e" stroke-width="2" fill="#5e5e5e"/><path d="M1519.74 1567.98a6 6 0 0 1 6-6h255.16a6 6 0 0 1 6 6v114.7a6 6 0 0 1-6 6h-255.16a6 6 0 0 1-6-6z" stroke="#5e5e5e" stroke-width="3" fill="#fa7811"/><g><use xlink:href="#C" transform="matrix(1,0,0,1,1526.0751373194041,1568.319573890615) translate(36.55555555555556 64.34375)"/></g><path d="M1464 1566.33v47.28a6 6 0 0 0 6 6h29.77M1464 1566.36v-1.03" stroke="#5e5e5e" stroke-width="2" fill="none"/><path d="M1515.04 1619.6l-14.27 4.64v-9.27z" stroke="#5e5e5e" stroke-width="2" fill="#5e5e5e"/><path d="M1519.74 1728.17a6 6 0 0 1 6-6h255.16a6 6 0 0 1 6 6v114.7a6 6 0 0 1-6 6h-255.16a6 6 0 0 1-6-6z" stroke="#5e5e5e" stroke-width="3" fill="#a7a6ff"/><g><use xlink:href="#C" transform="matrix(1,0,0,1,1526.0751373194041,1728.5031714835454) translate(36.55555555555556 64.34375)"/></g><path d="M1467.67 1793.33h32.1M1467.7 1793.33h-1.03" stroke="#5e5e5e" stroke-width="2" fill="none"/><path d="M1515.05 1793.33l-14.27 4.64v-9.27z" stroke="#5e5e5e" stroke-width="2" fill="#5e5e5e"/><path d="M1514.42 1943.8a6 6 0 0 1 6-6h255.16a6 6 0 0 1 6 6v114.7a6 6 0 0 1-6 6h-255.16a6 6 0 0 1-6-6z" stroke="#5e5e5e" stroke-width="3" fill="#e2e2e2"/><g><use xlink:href="#P" transform="matrix(1,0,0,1,1520.7569165119774,1944.142556625336) translate(36.55555555555556 64.34375)"/></g><path d="M1514.42 2187.98a6 6 0 0 1 6-6h255.16a6 6 0 0 1 6 6v114.7a6 6 0 0 1-6 6h-255.16a6 6 0 0 1-6-6z" stroke="#5e5e5e" stroke-width="3" fill="#fff1aa"/><g><use xlink:href="#P" transform="matrix(1,0,0,1,1520.7569165119774,2188.3195738906156) translate(36.55555555555556 64.34375)"/></g><path d="M1465 2001.33h29.46M1465.03 2001.33H1464" stroke="#5e5e5e" stroke-width="2" fill="none"/><path d="M1509.72 2001.33l-14.26 4.64v-9.27z" stroke="#5e5e5e" stroke-width="2" fill="#5e5e5e"/><path d="M1467.67 2249.33h26.8M1467.7 2249.33h-1.03" stroke="#5e5e5e" stroke-width="2" fill="none"/><path d="M1509.73 2249.33l-14.27 4.64v-9.27z" stroke="#5e5e5e" stroke-width="2" fill="#5e5e5e"/><defs><path fill="#333" d="M205 0l-28-72H64L36 0H1l101-248h38L239 0h-34zm-38-99l-47-123c-12 45-31 82-46 123h93" id="Q"/><path fill="#333" d="M96-169c-40 0-48 33-48 73s9 75 48 75c24 0 41-14 43-38l32 2c-6 37-31 61-74 61-59 0-76-41-82-99-10-93 101-131 147-64 4 7 5 14 7 22l-32 3c-4-21-16-35-41-35" id="R"/><path fill="#333" d="M84 4C-5 8 30-112 23-190h32v120c0 31 7 50 39 49 72-2 45-101 50-169h31l1 190h-30c-1-10 1-25-2-33-11 22-28 36-60 37" id="S"/><path fill="#333" d="M100-194c63 0 86 42 84 106H49c0 40 14 67 53 68 26 1 43-12 49-29l28 8c-11 28-37 45-77 45C44 4 14-33 15-96c1-61 26-98 85-98zm52 81c6-60-76-77-97-28-3 7-6 17-6 28h103" id="T"/><path fill="#333" d="M24-231v-30h32v30H24zM24 0v-190h32V0H24" id="U"/><path fill="#333" d="M24 0v-261h32V0H24" id="V"/><g id="a"><use transform="matrix(0.08641975308641976,0,0,0.08641975308641976,0,0)" xlink:href="#Q"/><use transform="matrix(0.08641975308641976,0,0,0.08641975308641976,20.740740740740744,0)" xlink:href="#R"/><use transform="matrix(0.08641975308641976,0,0,0.08641975308641976,36.296296296296305,0)" xlink:href="#R"/><use transform="matrix(0.08641975308641976,0,0,0.08641975308641976,51.851851851851855,0)" xlink:href="#S"/><use transform="matrix(0.08641975308641976,0,0,0.08641975308641976,69.13580246913581,0)" xlink:href="#T"/><use transform="matrix(0.08641975308641976,0,0,0.08641975308641976,86.41975308641976,0)" xlink:href="#U"/><use transform="matrix(0.08641975308641976,0,0,0.08641975308641976,93.24691358024693,0)" xlink:href="#V"/></g><path fill="#333" d="M240 0l2-218c-23 76-54 145-80 218h-23L58-218 59 0H30v-248h44l77 211c21-75 51-140 76-211h43V0h-30" id="W"/><path fill="#333" d="M100-194c62-1 85 37 85 99 1 63-27 99-86 99S16-35 15-95c0-66 28-99 85-99zM99-20c44 1 53-31 53-75 0-43-8-75-51-75s-53 32-53 75 10 74 51 75" id="X"/><path fill="#333" d="M117-194c89-4 53 116 60 194h-32v-121c0-31-8-49-39-48C34-167 62-67 57 0H25l-1-190h30c1 10-1 24 2 32 11-22 29-35 61-36" id="Y"/><g id="b"><use transform="matrix(0.08641975308641976,0,0,0.08641975308641976,0,0)" xlink:href="#W"/><use transform="matrix(0.08641975308641976,0,0,0.08641975308641976,25.83950617283951,0)" xlink:href="#X"/><use transform="matrix(0.08641975308641976,0,0,0.08641975308641976,43.12345679012346,0)" xlink:href="#Y"/></g><path fill="#333" d="M212-179c-10-28-35-45-73-45-59 0-87 40-87 99 0 60 29 101 89 101 43 0 62-24 78-52l27 14C228-24 195 4 139 4 59 4 22-46 18-125c-6-104 99-153 187-111 19 9 31 26 39 46" id="Z"/><path fill="#333" d="M137 0h-34L2-248h35l83 218 83-218h36" id="aa"/><g id="c"><use transform="matrix(0.08641975308641976,0,0,0.08641975308641976,0,0)" xlink:href="#Z"/><use transform="matrix(0.08641975308641976,0,0,0.08641975308641976,22.38271604938272,0)" xlink:href="#aa"/></g><path fill="#333" d="M135-143c-3-34-86-38-87 0 15 53 115 12 119 90S17 21 10-45l28-5c4 36 97 45 98 0-10-56-113-15-118-90-4-57 82-63 122-42 12 7 21 19 24 35" id="ab"/><g id="d"><use transform="matrix(0.08641975308641976,0,0,0.08641975308641976,0,0)" xlink:href="#W"/><use transform="matrix(0.08641975308641976,0,0,0.08641975308641976,25.83950617283951,0)" xlink:href="#T"/><use transform="matrix(0.08641975308641976,0,0,0.08641975308641976,43.12345679012346,0)" xlink:href="#ab"/></g><path fill="#333" d="M59-47c-2 24 18 29 38 22v24C64 9 27 4 27-40v-127H5v-23h24l9-43h21v43h35v23H59v120" id="ac"/><path fill="#333" d="M114-163C36-179 61-72 57 0H25l-1-190h30c1 12-1 29 2 39 6-27 23-49 58-41v29" id="ad"/><path fill="#333" d="M141-36C126-15 110 5 73 4 37 3 15-17 15-53c-1-64 63-63 125-63 3-35-9-54-41-54-24 1-41 7-42 31l-33-3c5-37 33-52 76-52 45 0 72 20 72 64v82c-1 20 7 32 28 27v20c-31 9-61-2-59-35zM48-53c0 20 12 33 32 33 41-3 63-29 60-74-43 2-92-5-92 41" id="ae"/><path fill="#333" d="M108 0H70L1-190h34L89-25l56-165h34" id="af"/><path fill="#333" d="M141 0L90-78 38 0H4l68-98-65-92h35l48 74 47-74h35l-64 92 68 98h-35" id="ag"/><g id="e"><use transform="matrix(0.08641975308641976,0,0,0.08641975308641976,0,0)" xlink:href="#ac"/><use transform="matrix(0.08641975308641976,0,0,0.08641975308641976,8.641975308641976,0)" xlink:href="#ad"/><use transform="matrix(0.08641975308641976,0,0,0.08641975308641976,18.925925925925927,0)" xlink:href="#ae"/><use transform="matrix(0.08641975308641976,0,0,0.08641975308641976,36.20987654320988,0)" xlink:href="#af"/><use transform="matrix(0.08641975308641976,0,0,0.08641975308641976,51.76543209876544,0)" xlink:href="#ae"/><use transform="matrix(0.08641975308641976,0,0,0.08641975308641976,69.0493827160494,0)" xlink:href="#S"/><use transform="matrix(0.08641975308641976,0,0,0.08641975308641976,86.33333333333334,0)" xlink:href="#ag"/></g><use transform="matrix(0.08641975308641976,0,0,0.08641975308641976,0,0)" xlink:href="#Q" id="f"/><path fill="#333" d="M115-194c55 1 70 41 70 98S169 2 115 4C84 4 66-9 55-30l1 105H24l-1-265h31l2 30c10-21 28-34 59-34zm-8 174c40 0 45-34 45-75s-6-73-45-74c-42 0-51 32-51 76 0 43 10 73 51 73" id="ah"/><g id="g"><use transform="matrix(0.08641975308641976,0,0,0.08641975308641976,0,0)" xlink:href="#ah"/><use transform="matrix(0.08641975308641976,0,0,0.08641975308641976,17.283950617283953,0)" xlink:href="#ad"/><use transform="matrix(0.08641975308641976,0,0,0.08641975308641976,27.567901234567906,0)" xlink:href="#X"/><use transform="matrix(0.08641975308641976,0,0,0.08641975308641976,44.85185185185187,0)" xlink:href="#ah"/><use transform="matrix(0.08641975308641976,0,0,0.08641975308641976,62.13580246913581,0)" xlink:href="#X"/><use transform="matrix(0.08641975308641976,0,0,0.08641975308641976,79.41975308641976,0)" xlink:href="#ab"/></g><path fill="#333" d="M85-194c31 0 48 13 60 33l-1-100h32l1 261h-30c-2-10 0-23-3-31C134-8 116 4 85 4 32 4 16-35 15-94c0-66 23-100 70-100zm9 24c-40 0-46 34-46 75 0 40 6 74 45 74 42 0 51-32 51-76 0-42-9-74-50-73" id="ai"/><g id="h"><use transform="matrix(0.08641975308641976,0,0,0.08641975308641976,0,0)" xlink:href="#ai"/><use transform="matrix(0.08641975308641976,0,0,0.08641975308641976,17.283950617283953,0)" xlink:href="#T"/></g><path fill="#333" d="M210-169c-67 3-38 105-44 169h-31v-121c0-29-5-50-35-48C34-165 62-65 56 0H25l-1-190h30c1 10-1 24 2 32 10-44 99-50 107 0 11-21 27-35 58-36 85-2 47 119 55 194h-31v-121c0-29-5-49-35-48" id="aj"/><g id="i"><use transform="matrix(0.08641975308641976,0,0,0.08641975308641976,0,0)" xlink:href="#aj"/><use transform="matrix(0.08641975308641976,0,0,0.08641975308641976,25.83950617283951,0)" xlink:href="#X"/><use transform="matrix(0.08641975308641976,0,0,0.08641975308641976,43.12345679012346,0)" xlink:href="#U"/></g><g id="j"><use transform="matrix(0.08641975308641976,0,0,0.08641975308641976,0,0)" xlink:href="#Z"/><use transform="matrix(0.08641975308641976,0,0,0.08641975308641976,22.38271604938272,0)" xlink:href="#X"/><use transform="matrix(0.08641975308641976,0,0,0.08641975308641976,39.66666666666667,0)" xlink:href="#Y"/><use transform="matrix(0.08641975308641976,0,0,0.08641975308641976,56.95061728395062,0)" xlink:href="#ac"/><use transform="matrix(0.08641975308641976,0,0,0.08641975308641976,65.5925925925926,0)" xlink:href="#ae"/><use transform="matrix(0.08641975308641976,0,0,0.08641975308641976,82.87654320987654,0)" xlink:href="#R"/><use transform="matrix(0.08641975308641976,0,0,0.08641975308641976,98.43209876543212,0)" xlink:href="#ac"/></g><path fill="#333" d="M127-220V0H93v-220H8v-28h204v28h-85" id="ak"/><path fill="#333" d="M30-248c87 1 191-15 191 75 0 78-77 80-158 76V0H30v-248zm33 125c57 0 124 11 124-50 0-59-68-47-124-48v98" id="al"/><g id="k"><use transform="matrix(0.08641975308641976,0,0,0.08641975308641976,0,0)" xlink:href="#ak"/><use transform="matrix(0.08641975308641976,0,0,0.08641975308641976,18.925925925925927,0)" xlink:href="#al"/></g><path fill="#333" d="M30 0v-248h33v221h125V0H30" id="am"/><path fill="#333" d="M115-194c53 0 69 39 70 98 0 66-23 100-70 100C84 3 66-7 56-30L54 0H23l1-261h32v101c10-23 28-34 59-34zm-8 174c40 0 45-34 45-75 0-40-5-75-45-74-42 0-51 32-51 76 0 43 10 73 51 73" id="an"/><path fill="#333" d="M179-190L93 31C79 59 56 82 12 73V49c39 6 53-20 64-50L1-190h34L92-34l54-156h33" id="ao"/><path fill="#333" d="M106-169C34-169 62-67 57 0H25v-261h32l-1 103c12-21 28-36 61-36 89 0 53 116 60 194h-32v-121c2-32-8-49-39-48" id="ap"/><g id="l"><use transform="matrix(0.08641975308641976,0,0,0.08641975308641976,0,0)" xlink:href="#am"/><use transform="matrix(0.08641975308641976,0,0,0.08641975308641976,17.283950617283953,0)" xlink:href="#ae"/><use transform="matrix(0.08641975308641976,0,0,0.08641975308641976,34.567901234567906,0)" xlink:href="#an"/><use transform="matrix(0.08641975308641976,0,0,0.08641975308641976,51.851851851851855,0)" xlink:href="#ao"/><use transform="matrix(0.08641975308641976,0,0,0.08641975308641976,67.40740740740742,0)" xlink:href="#ad"/><use transform="matrix(0.08641975308641976,0,0,0.08641975308641976,77.69135802469137,0)" xlink:href="#U"/><use transform="matrix(0.08641975308641976,0,0,0.08641975308641976,84.51851851851853,0)" xlink:href="#Y"/><use transform="matrix(0.08641975308641976,0,0,0.08641975308641976,101.80246913580248,0)" xlink:href="#ac"/><use transform="matrix(0.08641975308641976,0,0,0.08641975308641976,110.44444444444446,0)" xlink:href="#ap"/><use transform="matrix(0.08641975308641976,0,0,0.08641975308641976,127.7283950617284,0)" xlink:href="#T"/></g><path fill="#333" d="M87 75C49 33 22-17 22-94c0-76 28-126 65-167h31c-38 41-64 92-64 168S80 34 118 75H87" id="aq"/><path fill="#333" d="M197 0v-115H63V0H30v-248h33v105h134v-105h34V0h-34" id="ar"/><path fill="#333" d="M33-261c38 41 65 92 65 168S71 34 33 75H2C39 34 66-17 66-93S39-220 2-261h31" id="as"/><g id="m"><use transform="matrix(0.08641975308641976,0,0,0.08641975308641976,0,0)" xlink:href="#aq"/><use transform="matrix(0.08641975308641976,0,0,0.08641975308641976,10.283950617283951,0)" xlink:href="#ar"/><use transform="matrix(0.08641975308641976,0,0,0.08641975308641976,32.66666666666667,0)" xlink:href="#ak"/><use transform="matrix(0.08641975308641976,0,0,0.08641975308641976,51.592592592592595,0)" xlink:href="#W"/><use transform="matrix(0.08641975308641976,0,0,0.08641975308641976,77.4320987654321,0)" xlink:href="#am"/><use transform="matrix(0.08641975308641976,0,0,0.08641975308641976,94.71604938271606,0)" xlink:href="#as"/></g><path fill="#333" d="M63-220v92h138v28H63V0H30v-248h175v28H63" id="at"/><g id="n"><use transform="matrix(0.08641975308641976,0,0,0.08641975308641976,0,0)" xlink:href="#at"/><use transform="matrix(0.08641975308641976,0,0,0.08641975308641976,18.925925925925927,0)" xlink:href="#X"/><use transform="matrix(0.08641975308641976,0,0,0.08641975308641976,36.20987654320988,0)" xlink:href="#ad"/><use transform="matrix(0.08641975308641976,0,0,0.08641975308641976,46.49382716049383,0)" xlink:href="#aj"/><use transform="matrix(0.08641975308641976,0,0,0.08641975308641976,72.33333333333334,0)" xlink:href="#S"/><use transform="matrix(0.08641975308641976,0,0,0.08641975308641976,89.61728395061729,0)" xlink:href="#V"/><use transform="matrix(0.08641975308641976,0,0,0.08641975308641976,96.44444444444446,0)" xlink:href="#ae"/><use transform="matrix(0.08641975308641976,0,0,0.08641975308641976,113.7283950617284,0)" xlink:href="#U"/><use transform="matrix(0.08641975308641976,0,0,0.08641975308641976,120.55555555555557,0)" xlink:href="#ad"/><use transform="matrix(0.08641975308641976,0,0,0.08641975308641976,130.83950617283952,0)" xlink:href="#T"/></g><path fill="#333" d="M143 0L79-87 56-68V0H24v-261h32v163l83-92h37l-77 82L181 0h-38" id="au"/><path fill="#333" d="M177-190C167-65 218 103 67 71c-23-6-38-20-44-43l32-5c15 47 100 32 89-28v-30C133-14 115 1 83 1 29 1 15-40 15-95c0-56 16-97 71-98 29-1 48 16 59 35 1-10 0-23 2-32h30zM94-22c36 0 50-32 50-73 0-42-14-75-50-75-39 0-46 34-46 75s6 73 46 73" id="av"/><g id="o"><use transform="matrix(0.08641975308641976,0,0,0.08641975308641976,0,0)" xlink:href="#ad"/><use transform="matrix(0.08641975308641976,0,0,0.08641975308641976,10.283950617283951,0)" xlink:href="#T"/><use transform="matrix(0.08641975308641976,0,0,0.08641975308641976,27.567901234567906,0)" xlink:href="#V"/><use transform="matrix(0.08641975308641976,0,0,0.08641975308641976,34.39506172839506,0)" xlink:href="#X"/><use transform="matrix(0.08641975308641976,0,0,0.08641975308641976,51.679012345679006,0)" xlink:href="#X"/><use transform="matrix(0.08641975308641976,0,0,0.08641975308641976,68.96296296296296,0)" xlink:href="#au"/><use transform="matrix(0.08641975308641976,0,0,0.08641975308641976,84.51851851851852,0)" xlink:href="#U"/><use transform="matrix(0.08641975308641976,0,0,0.08641975308641976,91.34567901234568,0)" xlink:href="#Y"/><use transform="matrix(0.08641975308641976,0,0,0.08641975308641976,108.62962962962965,0)" xlink:href="#av"/></g><g id="p"><use transform="matrix(0.08641975308641976,0,0,0.08641975308641976,0,0)" xlink:href="#ak"/><use transform="matrix(0.08641975308641976,0,0,0.08641975308641976,15.469135802469134,0)" xlink:href="#ae"/><use transform="matrix(0.08641975308641976,0,0,0.08641975308641976,32.75308641975309,0)" xlink:href="#an"/><use transform="matrix(0.08641975308641976,0,0,0.08641975308641976,50.037037037037045,0)" xlink:href="#V"/><use transform="matrix(0.08641975308641976,0,0,0.08641975308641976,56.8641975308642,0)" xlink:href="#T"/><use transform="matrix(0.08641975308641976,0,0,0.08641975308641976,74.14814814814815,0)" xlink:href="#ae"/><use transform="matrix(0.08641975308641976,0,0,0.08641975308641976,91.4320987654321,0)" xlink:href="#S"/></g><g id="q"><use transform="matrix(0.08641975308641976,0,0,0.08641975308641976,0,0)" xlink:href="#ae"/><use transform="matrix(0.08641975308641976,0,0,0.08641975308641976,17.283950617283953,0)" xlink:href="#af"/><use transform="matrix(0.08641975308641976,0,0,0.08641975308641976,32.839506172839506,0)" xlink:href="#T"/><use transform="matrix(0.08641975308641976,0,0,0.08641975308641976,50.123456790123456,0)" xlink:href="#R"/></g><g id="r"><use transform="matrix(0.08641975308641976,0,0,0.08641975308641976,0,0)" xlink:href="#V"/><use transform="matrix(0.08641975308641976,0,0,0.08641975308641976,6.8271604938271615,0)" xlink:href="#T"/><use transform="matrix(0.08641975308641976,0,0,0.08641975308641976,24.111111111111114,0)" xlink:href="#ab"/></g><g id="s"><use transform="matrix(0.08641975308641976,0,0,0.08641975308641976,0,0)" xlink:href="#ab"/><use transform="matrix(0.08641975308641976,0,0,0.08641975308641976,15.555555555555557,0)" xlink:href="#ac"/><use transform="matrix(0.08641975308641976,0,0,0.08641975308641976,24.19753086419753,0)" xlink:href="#ao"/><use transform="matrix(0.08641975308641976,0,0,0.08641975308641976,39.75308641975309,0)" xlink:href="#V"/><use transform="matrix(0.08641975308641976,0,0,0.08641975308641976,46.580246913580254,0)" xlink:href="#T"/><use transform="matrix(0.08641975308641976,0,0,0.08641975308641976,63.8641975308642,0)" xlink:href="#ab"/></g><path fill="#333" d="M185-189c-5-48-123-54-124 2 14 75 158 14 163 119 3 78-121 87-175 55-17-10-28-26-33-46l33-7c5 56 141 63 141-1 0-78-155-14-162-118-5-82 145-84 179-34 5 7 8 16 11 25" id="aw"/><g id="t"><use transform="matrix(0.08641975308641976,0,0,0.08641975308641976,0,0)" xlink:href="#Z"/><use transform="matrix(0.08641975308641976,0,0,0.08641975308641976,22.38271604938272,0)" xlink:href="#aw"/><use transform="matrix(0.08641975308641976,0,0,0.08641975308641976,43.12345679012346,0)" xlink:href="#aw"/></g><g id="u"><use transform="matrix(0.08641975308641976,0,0,0.08641975308641976,0,0)" xlink:href="#aw"/><use transform="matrix(0.08641975308641976,0,0,0.08641975308641976,20.740740740740744,0)" xlink:href="#U"/><use transform="matrix(0.08641975308641976,0,0,0.08641975308641976,27.567901234567906,0)" xlink:href="#ac"/><use transform="matrix(0.08641975308641976,0,0,0.08641975308641976,36.20987654320988,0)" xlink:href="#T"/></g><g id="v"><use transform="matrix(0.08641975308641976,0,0,0.08641975308641976,0,0)" xlink:href="#ac"/><use transform="matrix(0.08641975308641976,0,0,0.08641975308641976,8.641975308641976,0)" xlink:href="#S"/><use transform="matrix(0.08641975308641976,0,0,0.08641975308641976,25.925925925925927,0)" xlink:href="#ac"/><use transform="matrix(0.08641975308641976,0,0,0.08641975308641976,34.567901234567906,0)" xlink:href="#X"/><use transform="matrix(0.08641975308641976,0,0,0.08641975308641976,51.851851851851855,0)" xlink:href="#ad"/><use transform="matrix(0.08641975308641976,0,0,0.08641975308641976,62.13580246913581,0)" xlink:href="#U"/><use transform="matrix(0.08641975308641976,0,0,0.08641975308641976,68.96296296296298,0)" xlink:href="#T"/><use transform="matrix(0.08641975308641976,0,0,0.08641975308641976,86.24691358024693,0)" xlink:href="#V"/></g><path fill="#333" d="M33 0v-38h34V0H33" id="ax"/><g id="w"><use transform="matrix(0.08641975308641976,0,0,0.08641975308641976,0,0)" xlink:href="#R"/><use transform="matrix(0.08641975308641976,0,0,0.08641975308641976,15.555555555555557,0)" xlink:href="#ab"/><use transform="matrix(0.08641975308641976,0,0,0.08641975308641976,31.111111111111114,0)" xlink:href="#ab"/><use transform="matrix(0.08641975308641976,0,0,0.08641975308641976,46.66666666666667,0)" xlink:href="#ax"/><use transform="matrix(0.08641975308641976,0,0,0.08641975308641976,55.308641975308646,0)" xlink:href="#aj"/><use transform="matrix(0.08641975308641976,0,0,0.08641975308641976,81.14814814814815,0)" xlink:href="#ae"/><use transform="matrix(0.08641975308641976,0,0,0.08641975308641976,98.43209876543212,0)" xlink:href="#ag"/><use transform="matrix(0.08641975308641976,0,0,0.08641975308641976,113.98765432098767,0)" xlink:href="#ai"/><use transform="matrix(0.08641975308641976,0,0,0.08641975308641976,131.27160493827162,0)" xlink:href="#T"/><use transform="matrix(0.08641975308641976,0,0,0.08641975308641976,148.55555555555557,0)" xlink:href="#ab"/><use transform="matrix(0.08641975308641976,0,0,0.08641975308641976,164.11111111111114,0)" xlink:href="#U"/><use transform="matrix(0.08641975308641976,0,0,0.08641975308641976,170.9382716049383,0)" xlink:href="#av"/><use transform="matrix(0.08641975308641976,0,0,0.08641975308641976,188.22222222222223,0)" xlink:href="#Y"/><use transform="matrix(0.08641975308641976,0,0,0.08641975308641976,205.5061728395062,0)" xlink:href="#ax"/><use transform="matrix(0.08641975308641976,0,0,0.08641975308641976,214.14814814814818,0)" xlink:href="#R"/><use transform="matrix(0.08641975308641976,0,0,0.08641975308641976,229.70370370370378,0)" xlink:href="#X"/><use transform="matrix(0.08641975308641976,0,0,0.08641975308641976,246.98765432098773,0)" xlink:href="#aj"/></g><g id="x"><use transform="matrix(0.08641975308641976,0,0,0.08641975308641976,0,0)" xlink:href="#at"/><use transform="matrix(0.08641975308641976,0,0,0.08641975308641976,18.925925925925927,0)" xlink:href="#V"/><use transform="matrix(0.08641975308641976,0,0,0.08641975308641976,25.75308641975309,0)" xlink:href="#T"/><use transform="matrix(0.08641975308641976,0,0,0.08641975308641976,43.03703703703704,0)" xlink:href="#ag"/><use transform="matrix(0.08641975308641976,0,0,0.08641975308641976,58.592592592592595,0)" xlink:href="#an"/><use transform="matrix(0.08641975308641976,0,0,0.08641975308641976,75.87654320987654,0)" xlink:href="#X"/><use transform="matrix(0.08641975308641976,0,0,0.08641975308641976,93.16049382716048,0)" xlink:href="#ag"/></g><path fill="#333" d="M143 4C61 4 22-44 18-125c-5-107 100-154 193-111 17 8 29 25 37 43l-32 9c-13-25-37-40-76-40-61 0-88 39-88 99 0 61 29 100 91 101 35 0 62-11 79-27v-45h-74v-28h105v86C228-13 192 4 143 4" id="ay"/><g id="y"><use transform="matrix(0.08641975308641976,0,0,0.08641975308641976,0,0)" xlink:href="#ay"/><use transform="matrix(0.08641975308641976,0,0,0.08641975308641976,24.19753086419753,0)" xlink:href="#ad"/><use transform="matrix(0.08641975308641976,0,0,0.08641975308641976,34.48148148148148,0)" xlink:href="#U"/><use transform="matrix(0.08641975308641976,0,0,0.08641975308641976,41.308641975308646,0)" xlink:href="#ai"/></g><path fill="#333" d="M30-248c118-7 216 8 213 122C240-48 200 0 122 0H30v-248zM63-27c89 8 146-16 146-99s-60-101-146-95v194" id="az"/><g id="z"><use transform="matrix(0.08641975308641976,0,0,0.08641975308641976,0,0)" xlink:href="#az"/><use transform="matrix(0.08641975308641976,0,0,0.08641975308641976,22.38271604938272,0)" xlink:href="#U"/><use transform="matrix(0.08641975308641976,0,0,0.08641975308641976,29.20987654320988,0)" xlink:href="#ae"/><use transform="matrix(0.08641975308641976,0,0,0.08641975308641976,46.49382716049383,0)" xlink:href="#av"/><use transform="matrix(0.08641975308641976,0,0,0.08641975308641976,63.777777777777786,0)" xlink:href="#ad"/><use transform="matrix(0.08641975308641976,0,0,0.08641975308641976,74.06172839506173,0)" xlink:href="#ae"/><use transform="matrix(0.08641975308641976,0,0,0.08641975308641976,91.34567901234568,0)" xlink:href="#aj"/><use transform="matrix(0.08641975308641976,0,0,0.08641975308641976,117.18518518518519,0)" xlink:href="#aj"/><use transform="matrix(0.08641975308641976,0,0,0.08641975308641976,143.0246913580247,0)" xlink:href="#T"/></g><g id="A"><use transform="matrix(0.08641975308641976,0,0,0.08641975308641976,0,0)" xlink:href="#ai"/><use transform="matrix(0.08641975308641976,0,0,0.08641975308641976,17.283950617283953,0)" xlink:href="#S"/></g><g id="B"><use transform="matrix(0.08641975308641976,0,0,0.08641975308641976,0,0)" xlink:href="#ab"/><use transform="matrix(0.08641975308641976,0,0,0.08641975308641976,15.555555555555557,0)" xlink:href="#U"/><use transform="matrix(0.08641975308641976,0,0,0.08641975308641976,22.38271604938272,0)" xlink:href="#ac"/><use transform="matrix(0.08641975308641976,0,0,0.08641975308641976,31.024691358024693,0)" xlink:href="#T"/></g><g id="C"><use transform="matrix(0.1111111111111111,0,0,0.1111111111111111,0,0)" xlink:href="#U"/><use transform="matrix(0.1111111111111111,0,0,0.1111111111111111,8.777777777777777,0)" xlink:href="#Y"/><use transform="matrix(0.1111111111111111,0,0,0.1111111111111111,31,0)" xlink:href="#ai"/><use transform="matrix(0.1111111111111111,0,0,0.1111111111111111,53.22222222222222,0)" xlink:href="#T"/><use transform="matrix(0.1111111111111111,0,0,0.1111111111111111,75.44444444444444,0)" xlink:href="#ag"/><use transform="matrix(0.1111111111111111,0,0,0.1111111111111111,95.44444444444444,0)" xlink:href="#ax"/><use transform="matrix(0.1111111111111111,0,0,0.1111111111111111,106.55555555555556,0)" xlink:href="#ap"/><use transform="matrix(0.1111111111111111,0,0,0.1111111111111111,128.77777777777777,0)" xlink:href="#ac"/><use transform="matrix(0.1111111111111111,0,0,0.1111111111111111,139.88888888888889,0)" xlink:href="#aj"/><use transform="matrix(0.1111111111111111,0,0,0.1111111111111111,173.11111111111111,0)" xlink:href="#V"/></g><path fill="#333" d="M16-82v-28h88v28H16" id="aA"/><g id="D"><use transform="matrix(0.1111111111111111,0,0,0.1111111111111111,0,0)" xlink:href="#ab"/><use transform="matrix(0.1111111111111111,0,0,0.1111111111111111,20,0)" xlink:href="#S"/><use transform="matrix(0.1111111111111111,0,0,0.1111111111111111,42.22222222222222,0)" xlink:href="#ai"/><use transform="matrix(0.1111111111111111,0,0,0.1111111111111111,64.44444444444444,0)" xlink:href="#aA"/><use transform="matrix(0.1111111111111111,0,0,0.1111111111111111,77.66666666666666,0)" xlink:href="#ab"/><use transform="matrix(0.1111111111111111,0,0,0.1111111111111111,97.66666666666666,0)" xlink:href="#S"/><use transform="matrix(0.1111111111111111,0,0,0.1111111111111111,119.88888888888889,0)" xlink:href="#ai"/><use transform="matrix(0.1111111111111111,0,0,0.1111111111111111,142.11111111111111,0)" xlink:href="#ax"/><use transform="matrix(0.1111111111111111,0,0,0.1111111111111111,153.22222222222223,0)" xlink:href="#ap"/><use transform="matrix(0.1111111111111111,0,0,0.1111111111111111,175.44444444444446,0)" xlink:href="#ac"/><use transform="matrix(0.1111111111111111,0,0,0.1111111111111111,186.55555555555557,0)" xlink:href="#aj"/><use transform="matrix(0.1111111111111111,0,0,0.1111111111111111,219.7777777777778,0)" xlink:href="#V"/></g><g id="E"><use transform="matrix(0.1111111111111111,0,0,0.1111111111111111,0,0)" xlink:href="#ab"/><use transform="matrix(0.1111111111111111,0,0,0.1111111111111111,20,0)" xlink:href="#S"/><use transform="matrix(0.1111111111111111,0,0,0.1111111111111111,42.22222222222222,0)" xlink:href="#ai"/><use transform="matrix(0.1111111111111111,0,0,0.1111111111111111,64.44444444444444,0)" xlink:href="#ax"/><use transform="matrix(0.1111111111111111,0,0,0.1111111111111111,75.55555555555556,0)" xlink:href="#ap"/><use transform="matrix(0.1111111111111111,0,0,0.1111111111111111,97.77777777777777,0)" xlink:href="#ac"/><use transform="matrix(0.1111111111111111,0,0,0.1111111111111111,108.88888888888889,0)" xlink:href="#aj"/><use transform="matrix(0.1111111111111111,0,0,0.1111111111111111,142.11111111111111,0)" xlink:href="#V"/></g><g id="F"><use transform="matrix(0.1111111111111111,0,0,0.1111111111111111,0,0)" xlink:href="#Y"/><use transform="matrix(0.1111111111111111,0,0,0.1111111111111111,22.22222222222222,0)" xlink:href="#X"/><use transform="matrix(0.1111111111111111,0,0,0.1111111111111111,44.44444444444444,0)" xlink:href="#ad"/><use transform="matrix(0.1111111111111111,0,0,0.1111111111111111,57.666666666666664,0)" xlink:href="#ai"/><use transform="matrix(0.1111111111111111,0,0,0.1111111111111111,79.88888888888889,0)" xlink:href="#aA"/><use transform="matrix(0.1111111111111111,0,0,0.1111111111111111,93.11111111111111,0)" xlink:href="#T"/><use transform="matrix(0.1111111111111111,0,0,0.1111111111111111,115.33333333333336,0)" xlink:href="#ab"/><use transform="matrix(0.1111111111111111,0,0,0.1111111111111111,135.33333333333334,0)" xlink:href="#ac"/><use transform="matrix(0.1111111111111111,0,0,0.1111111111111111,146.44444444444446,0)" xlink:href="#ax"/><use transform="matrix(0.1111111111111111,0,0,0.1111111111111111,157.55555555555557,0)" xlink:href="#ap"/><use transform="matrix(0.1111111111111111,0,0,0.1111111111111111,179.7777777777778,0)" xlink:href="#ac"/><use transform="matrix(0.1111111111111111,0,0,0.1111111111111111,190.8888888888889,0)" xlink:href="#aj"/><use transform="matrix(0.1111111111111111,0,0,0.1111111111111111,224.11111111111114,0)" xlink:href="#V"/></g><g id="G"><use transform="matrix(0.1111111111111111,0,0,0.1111111111111111,0,0)" xlink:href="#ab"/><use transform="matrix(0.1111111111111111,0,0,0.1111111111111111,20,0)" xlink:href="#S"/><use transform="matrix(0.1111111111111111,0,0,0.1111111111111111,42.22222222222222,0)" xlink:href="#ai"/><use transform="matrix(0.1111111111111111,0,0,0.1111111111111111,64.44444444444444,0)" xlink:href="#aA"/><use transform="matrix(0.1111111111111111,0,0,0.1111111111111111,77.66666666666666,0)" xlink:href="#X"/><use transform="matrix(0.1111111111111111,0,0,0.1111111111111111,99.88888888888889,0)" xlink:href="#S"/><use transform="matrix(0.1111111111111111,0,0,0.1111111111111111,122.1111111111111,0)" xlink:href="#T"/><use transform="matrix(0.1111111111111111,0,0,0.1111111111111111,144.33333333333334,0)" xlink:href="#ab"/><use transform="matrix(0.1111111111111111,0,0,0.1111111111111111,164.33333333333334,0)" xlink:href="#ac"/><use transform="matrix(0.1111111111111111,0,0,0.1111111111111111,175.44444444444446,0)" xlink:href="#ax"/><use transform="matrix(0.1111111111111111,0,0,0.1111111111111111,186.55555555555557,0)" xlink:href="#ap"/><use transform="matrix(0.1111111111111111,0,0,0.1111111111111111,208.7777777777778,0)" xlink:href="#ac"/><use transform="matrix(0.1111111111111111,0,0,0.1111111111111111,219.8888888888889,0)" xlink:href="#aj"/><use transform="matrix(0.1111111111111111,0,0,0.1111111111111111,253.11111111111114,0)" xlink:href="#V"/></g><g id="H"><use transform="matrix(0.1111111111111111,0,0,0.1111111111111111,0,0)" xlink:href="#Y"/><use transform="matrix(0.1111111111111111,0,0,0.1111111111111111,22.22222222222222,0)" xlink:href="#X"/><use transform="matrix(0.1111111111111111,0,0,0.1111111111111111,44.44444444444444,0)" xlink:href="#ad"/><use transform="matrix(0.1111111111111111,0,0,0.1111111111111111,57.666666666666664,0)" xlink:href="#ai"/><use transform="matrix(0.1111111111111111,0,0,0.1111111111111111,79.88888888888889,0)" xlink:href="#aA"/><use transform="matrix(0.1111111111111111,0,0,0.1111111111111111,93.11111111111111,0)" xlink:href="#X"/><use transform="matrix(0.1111111111111111,0,0,0.1111111111111111,115.33333333333336,0)" xlink:href="#S"/><use transform="matrix(0.1111111111111111,0,0,0.1111111111111111,137.55555555555557,0)" xlink:href="#T"/><use transform="matrix(0.1111111111111111,0,0,0.1111111111111111,159.7777777777778,0)" xlink:href="#ab"/><use transform="matrix(0.1111111111111111,0,0,0.1111111111111111,179.7777777777778,0)" xlink:href="#ac"/><use transform="matrix(0.1111111111111111,0,0,0.1111111111111111,190.8888888888889,0)" xlink:href="#ax"/><use transform="matrix(0.1111111111111111,0,0,0.1111111111111111,202.00000000000003,0)" xlink:href="#ap"/><use transform="matrix(0.1111111111111111,0,0,0.1111111111111111,224.22222222222226,0)" xlink:href="#ac"/><use transform="matrix(0.1111111111111111,0,0,0.1111111111111111,235.33333333333337,0)" xlink:href="#aj"/><use transform="matrix(0.1111111111111111,0,0,0.1111111111111111,268.5555555555556,0)" xlink:href="#V"/></g><g id="I"><use transform="matrix(0.1111111111111111,0,0,0.1111111111111111,0,0)" xlink:href="#Y"/><use transform="matrix(0.1111111111111111,0,0,0.1111111111111111,22.22222222222222,0)" xlink:href="#X"/><use transform="matrix(0.1111111111111111,0,0,0.1111111111111111,44.44444444444444,0)" xlink:href="#ad"/><use transform="matrix(0.1111111111111111,0,0,0.1111111111111111,57.666666666666664,0)" xlink:href="#ai"/><use transform="matrix(0.1111111111111111,0,0,0.1111111111111111,79.88888888888889,0)" xlink:href="#aA"/><use transform="matrix(0.1111111111111111,0,0,0.1111111111111111,93.11111111111111,0)" xlink:href="#Y"/><use transform="matrix(0.1111111111111111,0,0,0.1111111111111111,115.33333333333336,0)" xlink:href="#X"/><use transform="matrix(0.1111111111111111,0,0,0.1111111111111111,137.55555555555557,0)" xlink:href="#ad"/><use transform="matrix(0.1111111111111111,0,0,0.1111111111111111,150.7777777777778,0)" xlink:href="#ai"/><use transform="matrix(0.1111111111111111,0,0,0.1111111111111111,173.00000000000003,0)" xlink:href="#ax"/><use transform="matrix(0.1111111111111111,0,0,0.1111111111111111,184.11111111111114,0)" xlink:href="#ap"/><use transform="matrix(0.1111111111111111,0,0,0.1111111111111111,206.33333333333337,0)" xlink:href="#ac"/><use transform="matrix(0.1111111111111111,0,0,0.1111111111111111,217.44444444444449,0)" xlink:href="#aj"/><use transform="matrix(0.1111111111111111,0,0,0.1111111111111111,250.6666666666667,0)" xlink:href="#V"/></g><g id="J"><use transform="matrix(0.1111111111111111,0,0,0.1111111111111111,0,0)" xlink:href="#ab"/><use transform="matrix(0.1111111111111111,0,0,0.1111111111111111,20,0)" xlink:href="#S"/><use transform="matrix(0.1111111111111111,0,0,0.1111111111111111,42.22222222222222,0)" xlink:href="#ai"/><use transform="matrix(0.1111111111111111,0,0,0.1111111111111111,64.44444444444444,0)" xlink:href="#aA"/><use transform="matrix(0.1111111111111111,0,0,0.1111111111111111,77.66666666666666,0)" xlink:href="#T"/><use transform="matrix(0.1111111111111111,0,0,0.1111111111111111,99.88888888888889,0)" xlink:href="#ab"/><use transform="matrix(0.1111111111111111,0,0,0.1111111111111111,119.88888888888889,0)" xlink:href="#ac"/><use transform="matrix(0.1111111111111111,0,0,0.1111111111111111,131,0)" xlink:href="#ax"/><use transform="matrix(0.1111111111111111,0,0,0.1111111111111111,142.11111111111111,0)" xlink:href="#ap"/><use transform="matrix(0.1111111111111111,0,0,0.1111111111111111,164.33333333333334,0)" xlink:href="#ac"/><use transform="matrix(0.1111111111111111,0,0,0.1111111111111111,175.44444444444446,0)" xlink:href="#aj"/><use transform="matrix(0.1111111111111111,0,0,0.1111111111111111,208.66666666666669,0)" xlink:href="#V"/></g><g id="K"><use transform="matrix(0.1111111111111111,0,0,0.1111111111111111,0,0)" xlink:href="#Y"/><use transform="matrix(0.1111111111111111,0,0,0.1111111111111111,22.22222222222222,0)" xlink:href="#X"/><use transform="matrix(0.1111111111111111,0,0,0.1111111111111111,44.44444444444444,0)" xlink:href="#ad"/><use transform="matrix(0.1111111111111111,0,0,0.1111111111111111,57.666666666666664,0)" xlink:href="#ai"/><use transform="matrix(0.1111111111111111,0,0,0.1111111111111111,79.88888888888889,0)" xlink:href="#ax"/><use transform="matrix(0.1111111111111111,0,0,0.1111111111111111,91,0)" xlink:href="#ap"/><use transform="matrix(0.1111111111111111,0,0,0.1111111111111111,113.22222222222223,0)" xlink:href="#ac"/><use transform="matrix(0.1111111111111111,0,0,0.1111111111111111,124.33333333333336,0)" xlink:href="#aj"/><use transform="matrix(0.1111111111111111,0,0,0.1111111111111111,157.55555555555557,0)" xlink:href="#V"/></g><g id="L"><use transform="matrix(0.1111111111111111,0,0,0.1111111111111111,0,0)" xlink:href="#ae"/><use transform="matrix(0.1111111111111111,0,0,0.1111111111111111,22.22222222222222,0)" xlink:href="#an"/><use transform="matrix(0.1111111111111111,0,0,0.1111111111111111,44.44444444444444,0)" xlink:href="#X"/><use transform="matrix(0.1111111111111111,0,0,0.1111111111111111,66.66666666666666,0)" xlink:href="#S"/><use transform="matrix(0.1111111111111111,0,0,0.1111111111111111,88.88888888888889,0)" xlink:href="#ac"/><use transform="matrix(0.1111111111111111,0,0,0.1111111111111111,100,0)" xlink:href="#ax"/><use transform="matrix(0.1111111111111111,0,0,0.1111111111111111,111.11111111111111,0)" xlink:href="#ap"/><use transform="matrix(0.1111111111111111,0,0,0.1111111111111111,133.33333333333334,0)" xlink:href="#ac"/><use transform="matrix(0.1111111111111111,0,0,0.1111111111111111,144.44444444444446,0)" xlink:href="#aj"/><use transform="matrix(0.1111111111111111,0,0,0.1111111111111111,177.66666666666669,0)" xlink:href="#V"/></g><path fill="#333" d="M145-31C134-9 116 4 85 4 32 4 16-35 15-94c0-59 17-99 70-100 32-1 48 14 60 33 0-11-1-24 2-32h30l-1 268h-32zM93-21c41 0 51-33 51-76s-8-73-50-73c-40 0-46 35-46 75s5 74 45 74" id="aB"/><g id="M"><use transform="matrix(0.1111111111111111,0,0,0.1111111111111111,0,0)" xlink:href="#aB"/><use transform="matrix(0.1111111111111111,0,0,0.1111111111111111,22.22222222222222,0)" xlink:href="#S"/><use transform="matrix(0.1111111111111111,0,0,0.1111111111111111,44.44444444444444,0)" xlink:href="#T"/><use transform="matrix(0.1111111111111111,0,0,0.1111111111111111,66.66666666666666,0)" xlink:href="#ab"/><use transform="matrix(0.1111111111111111,0,0,0.1111111111111111,86.66666666666666,0)" xlink:href="#ac"/><use transform="matrix(0.1111111111111111,0,0,0.1111111111111111,97.77777777777777,0)" xlink:href="#U"/><use transform="matrix(0.1111111111111111,0,0,0.1111111111111111,106.55555555555554,0)" xlink:href="#X"/><use transform="matrix(0.1111111111111111,0,0,0.1111111111111111,128.77777777777777,0)" xlink:href="#Y"/><use transform="matrix(0.1111111111111111,0,0,0.1111111111111111,151,0)" xlink:href="#ab"/><use transform="matrix(0.1111111111111111,0,0,0.1111111111111111,171,0)" xlink:href="#ax"/><use transform="matrix(0.1111111111111111,0,0,0.1111111111111111,182.11111111111111,0)" xlink:href="#ap"/><use transform="matrix(0.1111111111111111,0,0,0.1111111111111111,204.33333333333334,0)" xlink:href="#ac"/><use transform="matrix(0.1111111111111111,0,0,0.1111111111111111,215.44444444444446,0)" xlink:href="#aj"/><use transform="matrix(0.1111111111111111,0,0,0.1111111111111111,248.6666666666667,0)" xlink:href="#V"/></g><g id="N"><use transform="matrix(0.1111111111111111,0,0,0.1111111111111111,0,0)" xlink:href="#av"/><use transform="matrix(0.1111111111111111,0,0,0.1111111111111111,22.22222222222222,0)" xlink:href="#ad"/><use transform="matrix(0.1111111111111111,0,0,0.1111111111111111,35.44444444444444,0)" xlink:href="#U"/><use transform="matrix(0.1111111111111111,0,0,0.1111111111111111,44.22222222222222,0)" xlink:href="#V"/><use transform="matrix(0.1111111111111111,0,0,0.1111111111111111,53,0)" xlink:href="#V"/><use transform="matrix(0.1111111111111111,0,0,0.1111111111111111,61.77777777777777,0)" xlink:href="#T"/><use transform="matrix(0.1111111111111111,0,0,0.1111111111111111,84,0)" xlink:href="#ab"/><use transform="matrix(0.1111111111111111,0,0,0.1111111111111111,104,0)" xlink:href="#ax"/><use transform="matrix(0.1111111111111111,0,0,0.1111111111111111,115.1111111111111,0)" xlink:href="#ap"/><use transform="matrix(0.1111111111111111,0,0,0.1111111111111111,137.33333333333334,0)" xlink:href="#ac"/><use transform="matrix(0.1111111111111111,0,0,0.1111111111111111,148.44444444444446,0)" xlink:href="#aj"/><use transform="matrix(0.1111111111111111,0,0,0.1111111111111111,181.66666666666669,0)" xlink:href="#V"/></g><g id="O"><use transform="matrix(0.1111111111111111,0,0,0.1111111111111111,0,0)" xlink:href="#U"/><use transform="matrix(0.1111111111111111,0,0,0.1111111111111111,8.777777777777777,0)" xlink:href="#Y"/><use transform="matrix(0.1111111111111111,0,0,0.1111111111111111,31,0)" xlink:href="#ac"/><use transform="matrix(0.1111111111111111,0,0,0.1111111111111111,42.111111111111114,0)" xlink:href="#T"/><use transform="matrix(0.1111111111111111,0,0,0.1111111111111111,64.33333333333334,0)" xlink:href="#ad"/><use transform="matrix(0.1111111111111111,0,0,0.1111111111111111,77.55555555555557,0)" xlink:href="#ah"/><use transform="matrix(0.1111111111111111,0,0,0.1111111111111111,99.7777777777778,0)" xlink:href="#ad"/><use transform="matrix(0.1111111111111111,0,0,0.1111111111111111,113.00000000000003,0)" xlink:href="#T"/><use transform="matrix(0.1111111111111111,0,0,0.1111111111111111,135.22222222222226,0)" xlink:href="#ac"/><use transform="matrix(0.1111111111111111,0,0,0.1111111111111111,146.33333333333337,0)" xlink:href="#ax"/><use transform="matrix(0.1111111111111111,0,0,0.1111111111111111,157.44444444444449,0)" xlink:href="#ap"/><use transform="matrix(0.1111111111111111,0,0,0.1111111111111111,179.6666666666667,0)" xlink:href="#ac"/><use transform="matrix(0.1111111111111111,0,0,0.1111111111111111,190.77777777777783,0)" xlink:href="#aj"/><use transform="matrix(0.1111111111111111,0,0,0.1111111111111111,224.00000000000006,0)" xlink:href="#V"/></g><g id="P"><use transform="matrix(0.1111111111111111,0,0,0.1111111111111111,0,0)" xlink:href="#U"/><use transform="matrix(0.1111111111111111,0,0,0.1111111111111111,8.777777777777777,0)" xlink:href="#Y"/><use transform="matrix(0.1111111111111111,0,0,0.1111111111111111,31,0)" xlink:href="#ai"/><use transform="matrix(0.1111111111111111,0,0,0.1111111111111111,53.22222222222222,0)" xlink:href="#T"/><use transform="matrix(0.1111111111111111,0,0,0.1111111111111111,75.44444444444444,0)" xlink:href="#ag"/><use transform="matrix(0.1111111111111111,0,0,0.1111111111111111,95.44444444444444,0)" xlink:href="#ax"/><use transform="matrix(0.1111111111111111,0,0,0.1111111111111111,106.55555555555556,0)" xlink:href="#ap"/><use transform="matrix(0.1111111111111111,0,0,0.1111111111111111,128.77777777777777,0)" xlink:href="#ac"/><use transform="matrix(0.1111111111111111,0,0,0.1111111111111111,139.88888888888889,0)" xlink:href="#aj"/><use transform="matrix(0.1111111111111111,0,0,0.1111111111111111,173.11111111111111,0)" xlink:href="#V"/></g></defs></g></svg>